<svg width="228" height="75" viewBox="0 0 228 75" fill="none" xmlns="http://www.w3.org/2000/svg">
<rect width="74.4186" height="74.4186" rx="24" fill="#FBC02D"/>
<path d="M18.6047 16.2791H34.5205C39.253 16.2791 42.8811 17.3335 45.4051 19.4423C47.9456 21.5345 49.2159 24.5234 49.2159 28.409C49.2159 32.3112 47.9456 35.3166 45.4051 37.4255C42.8811 39.5177 39.253 40.5638 34.5205 40.5638L34.4564 53.4659C34.4564 53.4659 18.6047 54.0895 18.6047 33.0606V16.2791Z" stroke="black" stroke-width="2.5" stroke-miterlimit="8" stroke-linecap="round" stroke-linejoin="round"/>
<path d="M25.2029 21.8591H41.1187C45.8512 21.8591 49.4793 22.9135 52.0033 25.0224C54.5439 27.1146 55.8141 30.1035 55.8141 33.9891C55.8141 37.8912 54.5439 40.8967 52.0033 43.0056C49.4793 45.0978 45.8512 46.1439 41.1187 46.1439L41.0546 59.046C41.0546 59.046 25.2029 59.6696 25.2029 38.6407V21.8591Z" stroke="black" stroke-width="2.5" stroke-miterlimit="8" stroke-linecap="round" stroke-linejoin="round"/>
<path d="M18.6047 16.2791L26.0994 22.7556" stroke="black" stroke-width="2.5"/>
<path d="M34.5203 40.5637L42.015 47.0402" stroke="black" stroke-width="2.5"/>
<path d="M124.296 32.648C124.296 33.992 123.972 35.252 123.324 36.428C122.7 37.604 121.704 38.552 120.336 39.272C118.992 39.992 117.288 40.352 115.224 40.352H111.012V50H105.972V24.872H115.224C117.168 24.872 118.824 25.208 120.192 25.88C121.56 26.552 122.58 27.476 123.252 28.652C123.948 29.828 124.296 31.16 124.296 32.648ZM115.008 36.284C116.4 36.284 117.432 35.972 118.104 35.348C118.776 34.7 119.112 33.8 119.112 32.648C119.112 30.2 117.744 28.976 115.008 28.976H111.012V36.284H115.008ZM136.731 50.324C134.811 50.324 133.083 49.904 131.547 49.064C130.011 48.2 128.799 46.988 127.911 45.428C127.047 43.868 126.615 42.068 126.615 40.028C126.615 37.988 127.059 36.188 127.947 34.628C128.859 33.068 130.095 31.868 131.655 31.028C133.215 30.164 134.955 29.732 136.875 29.732C138.795 29.732 140.535 30.164 142.095 31.028C143.655 31.868 144.879 33.068 145.767 34.628C146.679 36.188 147.135 37.988 147.135 40.028C147.135 42.068 146.667 43.868 145.731 45.428C144.819 46.988 143.571 48.2 141.987 49.064C140.427 49.904 138.675 50.324 136.731 50.324ZM136.731 45.932C137.643 45.932 138.495 45.716 139.287 45.284C140.103 44.828 140.751 44.156 141.231 43.268C141.711 42.38 141.951 41.3 141.951 40.028C141.951 38.132 141.447 36.68 140.439 35.672C139.455 34.64 138.243 34.124 136.803 34.124C135.363 34.124 134.151 34.64 133.167 35.672C132.207 36.68 131.727 38.132 131.727 40.028C131.727 41.924 132.195 43.388 133.131 44.42C134.091 45.428 135.291 45.932 136.731 45.932ZM149.536 40.028C149.536 37.964 149.956 36.164 150.796 34.628C151.636 33.068 152.8 31.868 154.288 31.028C155.776 30.164 157.48 29.732 159.4 29.732C161.872 29.732 163.912 30.356 165.52 31.604C167.152 32.828 168.244 34.556 168.796 36.788H163.36C163.072 35.924 162.58 35.252 161.884 34.772C161.212 34.268 160.372 34.016 159.364 34.016C157.924 34.016 156.784 34.544 155.944 35.6C155.104 36.632 154.684 38.108 154.684 40.028C154.684 41.924 155.104 43.4 155.944 44.456C156.784 45.488 157.924 46.004 159.364 46.004C161.404 46.004 162.736 45.092 163.36 43.268H168.796C168.244 45.428 167.152 47.144 165.52 48.416C163.888 49.688 161.848 50.324 159.4 50.324C157.48 50.324 155.776 49.904 154.288 49.064C152.8 48.2 151.636 47 150.796 45.464C149.956 43.904 149.536 42.092 149.536 40.028ZM184.296 50L177.528 41.504V50H172.488V23.36H177.528V38.516L184.224 30.056H190.776L181.992 40.064L190.848 50H184.296ZM212.051 39.596C212.051 40.316 212.003 40.964 211.907 41.54H197.327C197.447 42.98 197.951 44.108 198.839 44.924C199.727 45.74 200.819 46.148 202.115 46.148C203.987 46.148 205.319 45.344 206.111 43.736H211.547C210.971 45.656 209.867 47.24 208.235 48.488C206.603 49.712 204.599 50.324 202.223 50.324C200.303 50.324 198.575 49.904 197.039 49.064C195.527 48.2 194.339 46.988 193.475 45.428C192.635 43.868 192.215 42.068 192.215 40.028C192.215 37.964 192.635 36.152 193.475 34.592C194.315 33.032 195.491 31.832 197.003 30.992C198.515 30.152 200.255 29.732 202.223 29.732C204.119 29.732 205.811 30.14 207.299 30.956C208.811 31.772 209.975 32.936 210.791 34.448C211.631 35.936 212.051 37.652 212.051 39.596ZM206.831 38.156C206.807 36.86 206.339 35.828 205.427 35.06C204.515 34.268 203.399 33.872 202.079 33.872C200.831 33.872 199.775 34.256 198.911 35.024C198.071 35.768 197.555 36.812 197.363 38.156H206.831ZM221.598 34.196V43.844C221.598 44.516 221.754 45.008 222.066 45.32C222.402 45.608 222.954 45.752 223.722 45.752H226.062V50H222.894C218.646 50 216.522 47.936 216.522 43.808V34.196H214.146V30.056H216.522V25.124H221.598V30.056H226.062V34.196H221.598Z" fill="black"/>
</svg>
