<svg width="640" height="695" viewBox="0 0 640 695" fill="none" xmlns="http://www.w3.org/2000/svg">
<circle cx="101.5" cy="549.5" r="101.5" fill="url(#paint0_linear)"/>
<circle cx="430.5" cy="148.5" r="148.5" fill="url(#paint1_linear)"/>
<g filter="url(#filter0_b)">
<g clip-path="url(#clip0)">
<rect x="124.901" y="55" width="360" height="640" rx="20" fill="#FAFAFA" fill-opacity="0.7"/>
<path d="M124.901 377C124.901 365.954 133.856 357 144.901 357H464.901C475.947 357 484.901 365.954 484.901 377V695H124.901V377Z" fill="#FAFAFA"/>
<path d="M186.652 453.54V458.2H191.732V459.7H186.652V464.5H192.332V466H184.832V452.04H192.332V453.54H186.652ZM208.266 454.84C209.119 454.84 209.879 455.02 210.546 455.38C211.213 455.727 211.739 456.253 212.126 456.96C212.513 457.667 212.706 458.527 212.706 459.54V466H210.906V459.8C210.906 458.707 210.633 457.873 210.086 457.3C209.553 456.713 208.826 456.42 207.906 456.42C206.959 456.42 206.206 456.727 205.646 457.34C205.086 457.94 204.806 458.813 204.806 459.96V466H203.006V459.8C203.006 458.707 202.733 457.873 202.186 457.3C201.653 456.713 200.926 456.42 200.006 456.42C199.059 456.42 198.306 456.727 197.746 457.34C197.186 457.94 196.906 458.813 196.906 459.96V466H195.086V455.04H196.906V456.62C197.266 456.047 197.746 455.607 198.346 455.3C198.959 454.993 199.633 454.84 200.366 454.84C201.286 454.84 202.099 455.047 202.806 455.46C203.513 455.873 204.039 456.48 204.386 457.28C204.693 456.507 205.199 455.907 205.906 455.48C206.613 455.053 207.399 454.84 208.266 454.84ZM217.512 457.06C217.872 456.433 218.405 455.913 219.112 455.5C219.832 455.073 220.665 454.86 221.612 454.86C222.585 454.86 223.465 455.093 224.252 455.56C225.052 456.027 225.678 456.687 226.132 457.54C226.585 458.38 226.812 459.36 226.812 460.48C226.812 461.587 226.585 462.573 226.132 463.44C225.678 464.307 225.052 464.98 224.252 465.46C223.465 465.94 222.585 466.18 221.612 466.18C220.678 466.18 219.852 465.973 219.132 465.56C218.425 465.133 217.885 464.607 217.512 463.98V471.2H215.692V455.04H217.512V457.06ZM224.952 460.48C224.952 459.653 224.785 458.933 224.452 458.32C224.118 457.707 223.665 457.24 223.092 456.92C222.532 456.6 221.912 456.44 221.232 456.44C220.565 456.44 219.945 456.607 219.372 456.94C218.812 457.26 218.358 457.733 218.012 458.36C217.678 458.973 217.512 459.687 217.512 460.5C217.512 461.327 217.678 462.053 218.012 462.68C218.358 463.293 218.812 463.767 219.372 464.1C219.945 464.42 220.565 464.58 221.232 464.58C221.912 464.58 222.532 464.42 223.092 464.1C223.665 463.767 224.118 463.293 224.452 462.68C224.785 462.053 224.952 461.32 224.952 460.48ZM231.027 456.82C231.347 456.193 231.801 455.707 232.387 455.36C232.987 455.013 233.714 454.84 234.567 454.84V456.72H234.087C232.047 456.72 231.027 457.827 231.027 460.04V466H229.207V455.04H231.027V456.82ZM246.668 460.1C246.668 460.447 246.648 460.813 246.608 461.2H237.848C237.915 462.28 238.282 463.127 238.948 463.74C239.628 464.34 240.448 464.64 241.408 464.64C242.195 464.64 242.848 464.46 243.368 464.1C243.902 463.727 244.275 463.233 244.488 462.62H246.448C246.155 463.673 245.568 464.533 244.688 465.2C243.808 465.853 242.715 466.18 241.408 466.18C240.368 466.18 239.435 465.947 238.608 465.48C237.795 465.013 237.155 464.353 236.688 463.5C236.222 462.633 235.988 461.633 235.988 460.5C235.988 459.367 236.215 458.373 236.668 457.52C237.122 456.667 237.755 456.013 238.568 455.56C239.395 455.093 240.342 454.86 241.408 454.86C242.448 454.86 243.368 455.087 244.168 455.54C244.968 455.993 245.582 456.62 246.008 457.42C246.448 458.207 246.668 459.1 246.668 460.1ZM244.788 459.72C244.788 459.027 244.635 458.433 244.328 457.94C244.022 457.433 243.602 457.053 243.068 456.8C242.548 456.533 241.968 456.4 241.328 456.4C240.408 456.4 239.622 456.693 238.968 457.28C238.328 457.867 237.962 458.68 237.868 459.72H244.788ZM243.288 451.94L239.028 454.22V452.86L243.288 450.36V451.94ZM252.951 466.18C252.111 466.18 251.357 466.04 250.691 465.76C250.024 465.467 249.497 465.067 249.111 464.56C248.724 464.04 248.511 463.447 248.471 462.78H250.351C250.404 463.327 250.657 463.773 251.111 464.12C251.577 464.467 252.184 464.64 252.931 464.64C253.624 464.64 254.171 464.487 254.571 464.18C254.971 463.873 255.171 463.487 255.171 463.02C255.171 462.54 254.957 462.187 254.531 461.96C254.104 461.72 253.444 461.487 252.551 461.26C251.737 461.047 251.071 460.833 250.551 460.62C250.044 460.393 249.604 460.067 249.231 459.64C248.871 459.2 248.691 458.627 248.691 457.92C248.691 457.36 248.857 456.847 249.191 456.38C249.524 455.913 249.997 455.547 250.611 455.28C251.224 455 251.924 454.86 252.711 454.86C253.924 454.86 254.904 455.167 255.651 455.78C256.397 456.393 256.797 457.233 256.851 458.3H255.031C254.991 457.727 254.757 457.267 254.331 456.92C253.917 456.573 253.357 456.4 252.651 456.4C251.997 456.4 251.477 456.54 251.091 456.82C250.704 457.1 250.511 457.467 250.511 457.92C250.511 458.28 250.624 458.58 250.851 458.82C251.091 459.047 251.384 459.233 251.731 459.38C252.091 459.513 252.584 459.667 253.211 459.84C253.997 460.053 254.637 460.267 255.131 460.48C255.624 460.68 256.044 460.987 256.391 461.4C256.751 461.813 256.937 462.353 256.951 463.02C256.951 463.62 256.784 464.16 256.451 464.64C256.117 465.12 255.644 465.5 255.031 465.78C254.431 466.047 253.737 466.18 252.951 466.18ZM261.74 456.54V463C261.74 463.533 261.853 463.913 262.08 464.14C262.306 464.353 262.7 464.46 263.26 464.46H264.6V466H262.96C261.946 466 261.186 465.767 260.68 465.3C260.173 464.833 259.92 464.067 259.92 463V456.54H258.5V455.04H259.92V452.28H261.74V455.04H264.6V456.54H261.74ZM267.745 453.26C267.398 453.26 267.105 453.14 266.865 452.9C266.625 452.66 266.505 452.367 266.505 452.02C266.505 451.673 266.625 451.38 266.865 451.14C267.105 450.9 267.398 450.78 267.745 450.78C268.078 450.78 268.358 450.9 268.585 451.14C268.825 451.38 268.945 451.673 268.945 452.02C268.945 452.367 268.825 452.66 268.585 452.9C268.358 453.14 268.078 453.26 267.745 453.26ZM268.625 455.04V466H266.805V455.04H268.625ZM284.907 454.84C285.76 454.84 286.52 455.02 287.187 455.38C287.853 455.727 288.38 456.253 288.767 456.96C289.153 457.667 289.347 458.527 289.347 459.54V466H287.547V459.8C287.547 458.707 287.273 457.873 286.727 457.3C286.193 456.713 285.467 456.42 284.547 456.42C283.6 456.42 282.847 456.727 282.287 457.34C281.727 457.94 281.447 458.813 281.447 459.96V466H279.647V459.8C279.647 458.707 279.373 457.873 278.827 457.3C278.293 456.713 277.567 456.42 276.647 456.42C275.7 456.42 274.947 456.727 274.387 457.34C273.827 457.94 273.547 458.813 273.547 459.96V466H271.727V455.04H273.547V456.62C273.907 456.047 274.387 455.607 274.987 455.3C275.6 454.993 276.273 454.84 277.007 454.84C277.927 454.84 278.74 455.047 279.447 455.46C280.153 455.873 280.68 456.48 281.027 457.28C281.333 456.507 281.84 455.907 282.547 455.48C283.253 455.053 284.04 454.84 284.907 454.84ZM297.112 466.18C296.086 466.18 295.152 465.947 294.312 465.48C293.486 465.013 292.832 464.353 292.352 463.5C291.886 462.633 291.652 461.633 291.652 460.5C291.652 459.38 291.892 458.393 292.372 457.54C292.866 456.673 293.532 456.013 294.372 455.56C295.212 455.093 296.152 454.86 297.192 454.86C298.232 454.86 299.172 455.093 300.012 455.56C300.852 456.013 301.512 456.667 301.992 457.52C302.486 458.373 302.732 459.367 302.732 460.5C302.732 461.633 302.479 462.633 301.972 463.5C301.479 464.353 300.806 465.013 299.952 465.48C299.099 465.947 298.152 466.18 297.112 466.18ZM297.112 464.58C297.766 464.58 298.379 464.427 298.952 464.12C299.526 463.813 299.986 463.353 300.332 462.74C300.692 462.127 300.872 461.38 300.872 460.5C300.872 459.62 300.699 458.873 300.352 458.26C300.006 457.647 299.552 457.193 298.992 456.9C298.432 456.593 297.826 456.44 297.172 456.44C296.506 456.44 295.892 456.593 295.332 456.9C294.786 457.193 294.346 457.647 294.012 458.26C293.679 458.873 293.512 459.62 293.512 460.5C293.512 461.393 293.672 462.147 293.992 462.76C294.326 463.373 294.766 463.833 295.312 464.14C295.859 464.433 296.459 464.58 297.112 464.58Z" fill="black"/>
<path d="M198.972 482.16V496H197.152V485.68L192.552 496H191.272L186.652 485.66V496H184.832V482.16H186.792L191.912 493.6L197.032 482.16H198.972ZM201.379 490.48C201.379 489.36 201.605 488.38 202.059 487.54C202.512 486.687 203.132 486.027 203.919 485.56C204.719 485.093 205.605 484.86 206.579 484.86C207.539 484.86 208.372 485.067 209.079 485.48C209.785 485.893 210.312 486.413 210.659 487.04V485.04H212.499V496H210.659V493.96C210.299 494.6 209.759 495.133 209.039 495.56C208.332 495.973 207.505 496.18 206.559 496.18C205.585 496.18 204.705 495.94 203.919 495.46C203.132 494.98 202.512 494.307 202.059 493.44C201.605 492.573 201.379 491.587 201.379 490.48ZM210.659 490.5C210.659 489.673 210.492 488.953 210.159 488.34C209.825 487.727 209.372 487.26 208.799 486.94C208.239 486.607 207.619 486.44 206.939 486.44C206.259 486.44 205.639 486.6 205.079 486.92C204.519 487.24 204.072 487.707 203.739 488.32C203.405 488.933 203.239 489.653 203.239 490.48C203.239 491.32 203.405 492.053 203.739 492.68C204.072 493.293 204.519 493.767 205.079 494.1C205.639 494.42 206.259 494.58 206.939 494.58C207.619 494.58 208.239 494.42 208.799 494.1C209.372 493.767 209.825 493.293 210.159 492.68C210.492 492.053 210.659 491.327 210.659 490.5ZM216.514 483.26C216.168 483.26 215.874 483.14 215.634 482.9C215.394 482.66 215.274 482.367 215.274 482.02C215.274 481.673 215.394 481.38 215.634 481.14C215.874 480.9 216.168 480.78 216.514 480.78C216.848 480.78 217.128 480.9 217.354 481.14C217.594 481.38 217.714 481.673 217.714 482.02C217.714 482.367 217.594 482.66 217.354 482.9C217.128 483.14 216.848 483.26 216.514 483.26ZM217.394 485.04V496H215.574V485.04H217.394ZM222.376 493.48L220.136 498.86H218.916L220.376 493.48H222.376ZM229.493 488.62C229.493 486.327 229.867 484.54 230.613 483.26C231.36 481.967 232.667 481.32 234.533 481.32C236.387 481.32 237.687 481.967 238.433 483.26C239.18 484.54 239.553 486.327 239.553 488.62C239.553 490.953 239.18 492.767 238.433 494.06C237.687 495.353 236.387 496 234.533 496C232.667 496 231.36 495.353 230.613 494.06C229.867 492.767 229.493 490.953 229.493 488.62ZM237.753 488.62C237.753 487.46 237.673 486.48 237.513 485.68C237.367 484.867 237.053 484.213 236.573 483.72C236.107 483.227 235.427 482.98 234.533 482.98C233.627 482.98 232.933 483.227 232.453 483.72C231.987 484.213 231.673 484.867 231.513 485.68C231.367 486.48 231.293 487.46 231.293 488.62C231.293 489.82 231.367 490.827 231.513 491.64C231.673 492.453 231.987 493.107 232.453 493.6C232.933 494.093 233.627 494.34 234.533 494.34C235.427 494.34 236.107 494.093 236.573 493.6C237.053 493.107 237.367 492.453 237.513 491.64C237.673 490.827 237.753 489.82 237.753 488.62ZM250.112 484.98C249.818 483.5 248.905 482.76 247.372 482.76C246.185 482.76 245.298 483.22 244.712 484.14C244.125 485.047 243.838 486.547 243.852 488.64C244.158 487.947 244.665 487.407 245.372 487.02C246.092 486.62 246.892 486.42 247.772 486.42C249.145 486.42 250.238 486.847 251.052 487.7C251.878 488.553 252.292 489.733 252.292 491.24C252.292 492.147 252.112 492.96 251.752 493.68C251.405 494.4 250.872 494.973 250.152 495.4C249.445 495.827 248.585 496.04 247.572 496.04C246.198 496.04 245.125 495.733 244.352 495.12C243.578 494.507 243.038 493.66 242.732 492.58C242.425 491.5 242.272 490.167 242.272 488.58C242.272 483.687 243.978 481.24 247.392 481.24C248.698 481.24 249.725 481.593 250.472 482.3C251.218 483.007 251.658 483.9 251.792 484.98H250.112ZM247.392 487.96C246.818 487.96 246.278 488.08 245.772 488.32C245.265 488.547 244.852 488.9 244.532 489.38C244.225 489.847 244.072 490.42 244.072 491.1C244.072 492.113 244.365 492.94 244.952 493.58C245.538 494.207 246.378 494.52 247.472 494.52C248.405 494.52 249.145 494.233 249.692 493.66C250.252 493.073 250.532 492.287 250.532 491.3C250.532 490.26 250.265 489.447 249.732 488.86C249.198 488.26 248.418 487.96 247.392 487.96Z" fill="black" fill-opacity="0.5"/>
<path d="M358.557 482L354.573 475.16H351.933V482H349.749V465.272H355.149C356.413 465.272 357.477 465.488 358.341 465.92C359.221 466.352 359.877 466.936 360.309 467.672C360.741 468.408 360.957 469.248 360.957 470.192C360.957 471.344 360.621 472.36 359.949 473.24C359.293 474.12 358.301 474.704 356.973 474.992L361.173 482H358.557ZM351.933 473.408H355.149C356.333 473.408 357.221 473.12 357.813 472.544C358.405 471.952 358.701 471.168 358.701 470.192C358.701 469.2 358.405 468.432 357.813 467.888C357.237 467.344 356.349 467.072 355.149 467.072H351.933V473.408ZM375.151 477.416C375.151 478.184 374.959 478.92 374.575 479.624C374.191 480.312 373.623 480.888 372.871 481.352C372.135 481.816 371.247 482.08 370.207 482.144V484.088H368.911V482.144C367.455 482.016 366.271 481.552 365.359 480.752C364.447 479.936 363.983 478.904 363.967 477.656H366.295C366.359 478.328 366.607 478.912 367.039 479.408C367.487 479.904 368.111 480.216 368.911 480.344V474.344C367.839 474.072 366.975 473.792 366.319 473.504C365.663 473.216 365.103 472.768 364.639 472.16C364.175 471.552 363.943 470.736 363.943 469.712C363.943 468.416 364.391 467.344 365.287 466.496C366.199 465.648 367.407 465.176 368.911 465.08V463.088H370.207V465.08C371.567 465.192 372.663 465.632 373.495 466.4C374.327 467.152 374.807 468.136 374.935 469.352H372.607C372.527 468.792 372.279 468.288 371.863 467.84C371.447 467.376 370.895 467.072 370.207 466.928V472.784C371.263 473.056 372.119 473.336 372.775 473.624C373.447 473.896 374.007 474.336 374.455 474.944C374.919 475.552 375.151 476.376 375.151 477.416ZM366.175 469.592C366.175 470.376 366.407 470.976 366.871 471.392C367.335 471.808 368.015 472.152 368.911 472.424V466.88C368.079 466.96 367.415 467.232 366.919 467.696C366.423 468.144 366.175 468.776 366.175 469.592ZM370.207 480.368C371.071 480.272 371.743 479.96 372.223 479.432C372.719 478.904 372.967 478.272 372.967 477.536C372.967 476.752 372.727 476.152 372.247 475.736C371.767 475.304 371.087 474.96 370.207 474.704V480.368ZM396.383 466.544H387.959V472.016C388.327 471.504 388.871 471.088 389.591 470.768C390.311 470.432 391.087 470.264 391.919 470.264C393.247 470.264 394.327 470.544 395.159 471.104C395.991 471.648 396.583 472.36 396.935 473.24C397.303 474.104 397.487 475.024 397.487 476C397.487 477.152 397.271 478.184 396.839 479.096C396.407 480.008 395.743 480.728 394.847 481.256C393.967 481.784 392.871 482.048 391.559 482.048C389.879 482.048 388.519 481.616 387.479 480.752C386.439 479.888 385.807 478.736 385.583 477.296H387.719C387.927 478.208 388.367 478.92 389.039 479.432C389.711 479.944 390.559 480.2 391.583 480.2C392.847 480.2 393.799 479.824 394.439 479.072C395.079 478.304 395.399 477.296 395.399 476.048C395.399 474.8 395.079 473.84 394.439 473.168C393.799 472.48 392.855 472.136 391.607 472.136C390.759 472.136 390.015 472.344 389.375 472.76C388.751 473.16 388.295 473.712 388.007 474.416H385.943V464.624H396.383V466.544ZM399.813 466.64V464.648H404.325V482H402.117V466.64H399.813ZM407.813 480.248C409.845 478.616 411.437 477.28 412.589 476.24C413.741 475.184 414.709 474.088 415.493 472.952C416.293 471.8 416.693 470.672 416.693 469.568C416.693 468.528 416.437 467.712 415.925 467.12C415.429 466.512 414.621 466.208 413.501 466.208C412.413 466.208 411.565 466.552 410.957 467.24C410.365 467.912 410.045 468.816 409.997 469.952H407.885C407.949 468.16 408.493 466.776 409.517 465.8C410.541 464.824 411.861 464.336 413.477 464.336C415.125 464.336 416.429 464.792 417.389 465.704C418.365 466.616 418.853 467.872 418.853 469.472C418.853 470.8 418.453 472.096 417.653 473.36C416.869 474.608 415.973 475.712 414.965 476.672C413.957 477.616 412.669 478.72 411.101 479.984H419.357V481.808H407.813V480.248ZM422.937 482.144C422.521 482.144 422.169 482 421.881 481.712C421.593 481.424 421.449 481.072 421.449 480.656C421.449 480.24 421.593 479.888 421.881 479.6C422.169 479.312 422.521 479.168 422.937 479.168C423.337 479.168 423.673 479.312 423.945 479.6C424.233 479.888 424.377 480.24 424.377 480.656C424.377 481.072 424.233 481.424 423.945 481.712C423.673 482 423.337 482.144 422.937 482.144ZM426.656 480.248C428.688 478.616 430.28 477.28 431.432 476.24C432.584 475.184 433.552 474.088 434.336 472.952C435.136 471.8 435.536 470.672 435.536 469.568C435.536 468.528 435.28 467.712 434.768 467.12C434.272 466.512 433.464 466.208 432.344 466.208C431.256 466.208 430.408 466.552 429.8 467.24C429.208 467.912 428.888 468.816 428.84 469.952H426.728C426.792 468.16 427.336 466.776 428.36 465.8C429.384 464.824 430.704 464.336 432.32 464.336C433.968 464.336 435.272 464.792 436.232 465.704C437.208 466.616 437.696 467.872 437.696 469.472C437.696 470.8 437.296 472.096 436.496 473.36C435.712 474.608 434.816 475.712 433.808 476.672C432.8 477.616 431.512 478.72 429.944 479.984H438.2V481.808H426.656V480.248ZM440.725 473.144C440.725 470.392 441.173 468.248 442.069 466.712C442.965 465.16 444.533 464.384 446.773 464.384C448.997 464.384 450.557 465.16 451.453 466.712C452.349 468.248 452.797 470.392 452.797 473.144C452.797 475.944 452.349 478.12 451.453 479.672C450.557 481.224 448.997 482 446.773 482C444.533 482 442.965 481.224 442.069 479.672C441.173 478.12 440.725 475.944 440.725 473.144ZM450.637 473.144C450.637 471.752 450.541 470.576 450.349 469.616C450.173 468.64 449.797 467.856 449.221 467.264C448.661 466.672 447.845 466.376 446.773 466.376C445.685 466.376 444.853 466.672 444.277 467.264C443.717 467.856 443.341 468.64 443.149 469.616C442.973 470.576 442.885 471.752 442.885 473.144C442.885 474.584 442.973 475.792 443.149 476.768C443.341 477.744 443.717 478.528 444.277 479.12C444.853 479.712 445.685 480.008 446.773 480.008C447.845 480.008 448.661 479.712 449.221 479.12C449.797 478.528 450.173 477.744 450.349 476.768C450.541 475.792 450.637 474.584 450.637 473.144Z" fill="black"/>
<g clip-path="url(#clip1)">
<path d="M161.657 466.122C161.471 465.959 161.17 465.959 160.984 466.122L151.944 474.039C150.97 474.892 150.97 476.275 151.944 477.128C152.918 477.981 154.498 477.981 155.472 477.128L158.941 474.089V483.917C158.941 485.067 160.006 486 161.32 486C162.634 486 163.699 485.067 163.699 483.917V474.089L167.168 477.128C168.142 477.981 169.721 477.981 170.695 477.128C171.67 476.275 171.67 474.892 170.695 474.039L161.657 466.122Z" fill="#07DA63"/>
</g>
<path d="M192.681 542.9H186.601L185.481 546H183.561L188.601 532.14H190.701L195.721 546H193.801L192.681 542.9ZM192.161 541.42L189.641 534.38L187.121 541.42H192.161ZM199.738 531.2V546H197.918V531.2H199.738ZM212.56 535.04V546H210.74V544.38C210.393 544.94 209.906 545.38 209.28 545.7C208.666 546.007 207.986 546.16 207.24 546.16C206.386 546.16 205.62 545.987 204.94 545.64C204.26 545.28 203.72 544.747 203.32 544.04C202.933 543.333 202.74 542.473 202.74 541.46V535.04H204.54V541.22C204.54 542.3 204.813 543.133 205.36 543.72C205.906 544.293 206.653 544.58 207.6 544.58C208.573 544.58 209.34 544.28 209.9 543.68C210.46 543.08 210.74 542.207 210.74 541.06V535.04H212.56ZM220.153 534.86C221.099 534.86 221.926 535.067 222.633 535.48C223.353 535.893 223.886 536.413 224.233 537.04V535.04H226.073V546.24C226.073 547.24 225.859 548.127 225.433 548.9C225.006 549.687 224.393 550.3 223.593 550.74C222.806 551.18 221.886 551.4 220.833 551.4C219.393 551.4 218.193 551.06 217.233 550.38C216.273 549.7 215.706 548.773 215.533 547.6H217.333C217.533 548.267 217.946 548.8 218.573 549.2C219.199 549.613 219.953 549.82 220.833 549.82C221.833 549.82 222.646 549.507 223.273 548.88C223.913 548.253 224.233 547.373 224.233 546.24V543.94C223.873 544.58 223.339 545.113 222.633 545.54C221.926 545.967 221.099 546.18 220.153 546.18C219.179 546.18 218.293 545.94 217.493 545.46C216.706 544.98 216.086 544.307 215.633 543.44C215.179 542.573 214.953 541.587 214.953 540.48C214.953 539.36 215.179 538.38 215.633 537.54C216.086 536.687 216.706 536.027 217.493 535.56C218.293 535.093 219.179 534.86 220.153 534.86ZM224.233 540.5C224.233 539.673 224.066 538.953 223.733 538.34C223.399 537.727 222.946 537.26 222.373 536.94C221.813 536.607 221.193 536.44 220.513 536.44C219.833 536.44 219.213 536.6 218.653 536.92C218.093 537.24 217.646 537.707 217.313 538.32C216.979 538.933 216.813 539.653 216.813 540.48C216.813 541.32 216.979 542.053 217.313 542.68C217.646 543.293 218.093 543.767 218.653 544.1C219.213 544.42 219.833 544.58 220.513 544.58C221.193 544.58 221.813 544.42 222.373 544.1C222.946 543.767 223.399 543.293 223.733 542.68C224.066 542.053 224.233 541.327 224.233 540.5ZM238.868 535.04V546H237.048V544.38C236.702 544.94 236.215 545.38 235.588 545.7C234.975 546.007 234.295 546.16 233.548 546.16C232.695 546.16 231.928 545.987 231.248 545.64C230.568 545.28 230.028 544.747 229.628 544.04C229.242 543.333 229.048 542.473 229.048 541.46V535.04H230.848V541.22C230.848 542.3 231.122 543.133 231.668 543.72C232.215 544.293 232.962 544.58 233.908 544.58C234.882 544.58 235.648 544.28 236.208 543.68C236.768 543.08 237.048 542.207 237.048 541.06V535.04H238.868ZM251.941 540.1C251.941 540.447 251.921 540.813 251.881 541.2H243.121C243.188 542.28 243.555 543.127 244.221 543.74C244.901 544.34 245.721 544.64 246.681 544.64C247.468 544.64 248.121 544.46 248.641 544.1C249.175 543.727 249.548 543.233 249.761 542.62H251.721C251.428 543.673 250.841 544.533 249.961 545.2C249.081 545.853 247.988 546.18 246.681 546.18C245.641 546.18 244.708 545.947 243.881 545.48C243.068 545.013 242.428 544.353 241.961 543.5C241.495 542.633 241.261 541.633 241.261 540.5C241.261 539.367 241.488 538.373 241.941 537.52C242.395 536.667 243.028 536.013 243.841 535.56C244.668 535.093 245.615 534.86 246.681 534.86C247.721 534.86 248.641 535.087 249.441 535.54C250.241 535.993 250.855 536.62 251.281 537.42C251.721 538.207 251.941 539.1 251.941 540.1ZM250.061 539.72C250.061 539.027 249.908 538.433 249.601 537.94C249.295 537.433 248.875 537.053 248.341 536.8C247.821 536.533 247.241 536.4 246.601 536.4C245.681 536.4 244.895 536.693 244.241 537.28C243.601 537.867 243.235 538.68 243.141 539.72H250.061ZM256.164 531.2V546H254.344V531.2H256.164Z" fill="black"/>
<path d="M192.681 572.9H186.601L185.481 576H183.561L188.601 562.14H190.701L195.721 576H193.801L192.681 572.9ZM192.161 571.42L189.641 564.38L187.121 571.42H192.161ZM199.738 567.08C200.111 566.427 200.658 565.893 201.378 565.48C202.098 565.067 202.918 564.86 203.838 564.86C204.824 564.86 205.711 565.093 206.498 565.56C207.284 566.027 207.904 566.687 208.358 567.54C208.811 568.38 209.038 569.36 209.038 570.48C209.038 571.587 208.811 572.573 208.358 573.44C207.904 574.307 207.278 574.98 206.478 575.46C205.691 575.94 204.811 576.18 203.838 576.18C202.891 576.18 202.058 575.973 201.338 575.56C200.631 575.147 200.098 574.62 199.738 573.98V576H197.918V561.2H199.738V567.08ZM207.178 570.48C207.178 569.653 207.011 568.933 206.678 568.32C206.344 567.707 205.891 567.24 205.318 566.92C204.758 566.6 204.138 566.44 203.458 566.44C202.791 566.44 202.171 566.607 201.598 566.94C201.038 567.26 200.584 567.733 200.238 568.36C199.904 568.973 199.738 569.687 199.738 570.5C199.738 571.327 199.904 572.053 200.238 572.68C200.584 573.293 201.038 573.767 201.598 574.1C202.171 574.42 202.791 574.58 203.458 574.58C204.138 574.58 204.758 574.42 205.318 574.1C205.891 573.767 206.344 573.293 206.678 572.68C207.011 572.053 207.178 571.32 207.178 570.48ZM213.253 566.82C213.573 566.193 214.027 565.707 214.613 565.36C215.213 565.013 215.94 564.84 216.793 564.84V566.72H216.313C214.273 566.72 213.253 567.827 213.253 570.04V576H211.433V565.04H213.253V566.82ZM220.774 573.48L218.534 578.86H217.314L218.774 573.48H220.774ZM227.671 574.54C229.365 573.18 230.691 572.067 231.651 571.2C232.611 570.32 233.418 569.407 234.071 568.46C234.738 567.5 235.071 566.56 235.071 565.64C235.071 564.773 234.858 564.093 234.431 563.6C234.018 563.093 233.345 562.84 232.411 562.84C231.505 562.84 230.798 563.127 230.291 563.7C229.798 564.26 229.531 565.013 229.491 565.96H227.731C227.785 564.467 228.238 563.313 229.091 562.5C229.945 561.687 231.045 561.28 232.391 561.28C233.765 561.28 234.851 561.66 235.651 562.42C236.465 563.18 236.871 564.227 236.871 565.56C236.871 566.667 236.538 567.747 235.871 568.8C235.218 569.84 234.471 570.76 233.631 571.56C232.791 572.347 231.718 573.267 230.411 574.32H237.291V575.84H227.671V574.54ZM238.915 563.2V561.54H242.675V576H240.835V563.2H238.915Z" fill="black" fill-opacity="0.5"/>
<path d="M358.377 562L354.393 555.16H351.753V562H349.569V545.272H354.969C356.233 545.272 357.297 545.488 358.161 545.92C359.041 546.352 359.697 546.936 360.129 547.672C360.561 548.408 360.777 549.248 360.777 550.192C360.777 551.344 360.441 552.36 359.769 553.24C359.113 554.12 358.121 554.704 356.793 554.992L360.993 562H358.377ZM351.753 553.408H354.969C356.153 553.408 357.041 553.12 357.633 552.544C358.225 551.952 358.521 551.168 358.521 550.192C358.521 549.2 358.225 548.432 357.633 547.888C357.057 547.344 356.169 547.072 354.969 547.072H351.753V553.408ZM374.971 557.416C374.971 558.184 374.779 558.92 374.395 559.624C374.011 560.312 373.443 560.888 372.691 561.352C371.955 561.816 371.067 562.08 370.027 562.144V564.088H368.731V562.144C367.275 562.016 366.091 561.552 365.179 560.752C364.267 559.936 363.803 558.904 363.787 557.656H366.115C366.179 558.328 366.427 558.912 366.859 559.408C367.307 559.904 367.931 560.216 368.731 560.344V554.344C367.659 554.072 366.795 553.792 366.139 553.504C365.483 553.216 364.923 552.768 364.459 552.16C363.995 551.552 363.763 550.736 363.763 549.712C363.763 548.416 364.211 547.344 365.107 546.496C366.019 545.648 367.227 545.176 368.731 545.08V543.088H370.027V545.08C371.387 545.192 372.483 545.632 373.315 546.4C374.147 547.152 374.627 548.136 374.755 549.352H372.427C372.347 548.792 372.099 548.288 371.683 547.84C371.267 547.376 370.715 547.072 370.027 546.928V552.784C371.083 553.056 371.939 553.336 372.595 553.624C373.267 553.896 373.827 554.336 374.275 554.944C374.739 555.552 374.971 556.376 374.971 557.416ZM365.995 549.592C365.995 550.376 366.227 550.976 366.691 551.392C367.155 551.808 367.835 552.152 368.731 552.424V546.88C367.899 546.96 367.235 547.232 366.739 547.696C366.243 548.144 365.995 548.776 365.995 549.592ZM370.027 560.368C370.891 560.272 371.563 559.96 372.043 559.432C372.539 558.904 372.787 558.272 372.787 557.536C372.787 556.752 372.547 556.152 372.067 555.736C371.587 555.304 370.907 554.96 370.027 554.704V560.368ZM384.875 560.248C386.907 558.616 388.499 557.28 389.651 556.24C390.803 555.184 391.771 554.088 392.555 552.952C393.355 551.8 393.755 550.672 393.755 549.568C393.755 548.528 393.499 547.712 392.987 547.12C392.491 546.512 391.683 546.208 390.563 546.208C389.475 546.208 388.627 546.552 388.019 547.24C387.427 547.912 387.107 548.816 387.059 549.952H384.947C385.011 548.16 385.555 546.776 386.579 545.8C387.603 544.824 388.923 544.336 390.539 544.336C392.187 544.336 393.491 544.792 394.451 545.704C395.427 546.616 395.915 547.872 395.915 549.472C395.915 550.8 395.515 552.096 394.715 553.36C393.931 554.608 393.035 555.712 392.027 556.672C391.019 557.616 389.731 558.72 388.163 559.984H396.419V561.808H384.875V560.248ZM410.008 546.544H401.584V552.016C401.952 551.504 402.496 551.088 403.216 550.768C403.936 550.432 404.712 550.264 405.544 550.264C406.872 550.264 407.952 550.544 408.784 551.104C409.616 551.648 410.208 552.36 410.56 553.24C410.928 554.104 411.112 555.024 411.112 556C411.112 557.152 410.896 558.184 410.464 559.096C410.032 560.008 409.368 560.728 408.472 561.256C407.592 561.784 406.496 562.048 405.184 562.048C403.504 562.048 402.144 561.616 401.104 560.752C400.064 559.888 399.432 558.736 399.208 557.296H401.344C401.552 558.208 401.992 558.92 402.664 559.432C403.336 559.944 404.184 560.2 405.208 560.2C406.472 560.2 407.424 559.824 408.064 559.072C408.704 558.304 409.024 557.296 409.024 556.048C409.024 554.8 408.704 553.84 408.064 553.168C407.424 552.48 406.48 552.136 405.232 552.136C404.384 552.136 403.64 552.344 403 552.76C402.376 553.16 401.92 553.712 401.632 554.416H399.568V544.624H410.008V546.544ZM423.686 548.776C423.334 547 422.238 546.112 420.398 546.112C418.974 546.112 417.91 546.664 417.206 547.768C416.502 548.856 416.158 550.656 416.174 553.168C416.542 552.336 417.15 551.688 417.998 551.224C418.862 550.744 419.822 550.504 420.878 550.504C422.526 550.504 423.838 551.016 424.814 552.04C425.806 553.064 426.302 554.48 426.302 556.288C426.302 557.376 426.086 558.352 425.654 559.216C425.238 560.08 424.598 560.768 423.734 561.28C422.886 561.792 421.854 562.048 420.638 562.048C418.99 562.048 417.702 561.68 416.774 560.944C415.846 560.208 415.198 559.192 414.83 557.896C414.462 556.6 414.278 555 414.278 553.096C414.278 547.224 416.326 544.288 420.422 544.288C421.99 544.288 423.222 544.712 424.118 545.56C425.014 546.408 425.542 547.48 425.702 548.776H423.686ZM420.422 552.352C419.734 552.352 419.086 552.496 418.478 552.784C417.87 553.056 417.374 553.48 416.99 554.056C416.622 554.616 416.438 555.304 416.438 556.12C416.438 557.336 416.79 558.328 417.494 559.096C418.198 559.848 419.206 560.224 420.518 560.224C421.638 560.224 422.526 559.88 423.182 559.192C423.854 558.488 424.19 557.544 424.19 556.36C424.19 555.112 423.87 554.136 423.23 553.432C422.59 552.712 421.654 552.352 420.422 552.352ZM430.304 562.144C429.888 562.144 429.536 562 429.248 561.712C428.96 561.424 428.816 561.072 428.816 560.656C428.816 560.24 428.96 559.888 429.248 559.6C429.536 559.312 429.888 559.168 430.304 559.168C430.704 559.168 431.04 559.312 431.312 559.6C431.6 559.888 431.744 560.24 431.744 560.656C431.744 561.072 431.6 561.424 431.312 561.712C431.04 562 430.704 562.144 430.304 562.144ZM433.711 546.64V544.648H438.223V562H436.015V546.64H433.711ZM445.143 552.976C444.247 552.624 443.559 552.112 443.079 551.44C442.599 550.768 442.359 549.952 442.359 548.992C442.359 548.128 442.575 547.352 443.007 546.664C443.439 545.96 444.079 545.408 444.927 545.008C445.791 544.592 446.831 544.384 448.047 544.384C449.263 544.384 450.295 544.592 451.143 545.008C452.007 545.408 452.655 545.96 453.087 546.664C453.535 547.352 453.759 548.128 453.759 548.992C453.759 549.92 453.511 550.736 453.015 551.44C452.519 552.128 451.839 552.64 450.975 552.976C451.967 553.28 452.751 553.816 453.327 554.584C453.919 555.336 454.215 556.248 454.215 557.32C454.215 558.36 453.959 559.272 453.447 560.056C452.935 560.824 452.207 561.424 451.263 561.856C450.335 562.272 449.263 562.48 448.047 562.48C446.831 562.48 445.759 562.272 444.831 561.856C443.919 561.424 443.207 560.824 442.695 560.056C442.183 559.272 441.927 558.36 441.927 557.32C441.927 556.248 442.215 555.328 442.791 554.56C443.367 553.792 444.151 553.264 445.143 552.976ZM451.647 549.256C451.647 548.28 451.327 547.528 450.687 547C450.047 546.472 449.167 546.208 448.047 546.208C446.943 546.208 446.071 546.472 445.431 547C444.791 547.528 444.471 548.288 444.471 549.28C444.471 550.176 444.799 550.896 445.455 551.44C446.127 551.984 446.991 552.256 448.047 552.256C449.119 552.256 449.983 551.984 450.639 551.44C451.311 550.88 451.647 550.152 451.647 549.256ZM448.047 553.936C446.863 553.936 445.895 554.216 445.143 554.776C444.391 555.32 444.015 556.144 444.015 557.248C444.015 558.272 444.375 559.096 445.095 559.72C445.831 560.344 446.815 560.656 448.047 560.656C449.279 560.656 450.255 560.344 450.975 559.72C451.695 559.096 452.055 558.272 452.055 557.248C452.055 556.176 451.687 555.36 450.951 554.8C450.215 554.224 449.247 553.936 448.047 553.936Z" fill="black"/>
<g clip-path="url(#clip2)">
<path d="M161.26 565.878C161.446 566.041 161.747 566.041 161.933 565.878L170.972 557.961C171.946 557.108 171.946 555.725 170.972 554.872C169.998 554.019 168.419 554.019 167.445 554.872L163.976 557.911V548.083C163.976 546.933 162.911 546 161.597 546C160.283 546 159.218 546.933 159.218 548.083V557.911L155.749 554.872C154.775 554.019 153.195 554.019 152.221 554.872C151.247 555.725 151.247 557.108 152.221 557.961L161.26 565.878Z" fill="#D32F2F"/>
</g>
<rect x="139.901" y="640" width="330" height="40" rx="10" fill="black"/>
<path d="M236.859 663.138H232.967L232.323 665H230.265L233.779 655.214H236.061L239.575 665H237.503L236.859 663.138ZM236.327 661.57L234.913 657.482L233.499 661.57H236.327ZM240.385 661.094C240.385 660.31 240.539 659.615 240.847 659.008C241.164 658.401 241.593 657.935 242.135 657.608C242.676 657.281 243.278 657.118 243.941 657.118C244.445 657.118 244.925 657.23 245.383 657.454C245.84 657.669 246.204 657.958 246.475 658.322V654.64H248.463V665H246.475V663.852C246.232 664.235 245.891 664.543 245.453 664.776C245.014 665.009 244.505 665.126 243.927 665.126C243.273 665.126 242.676 664.958 242.135 664.622C241.593 664.286 241.164 663.815 240.847 663.208C240.539 662.592 240.385 661.887 240.385 661.094ZM246.489 661.122C246.489 660.646 246.395 660.24 246.209 659.904C246.022 659.559 245.77 659.297 245.453 659.12C245.135 658.933 244.795 658.84 244.431 658.84C244.067 658.84 243.731 658.929 243.423 659.106C243.115 659.283 242.863 659.545 242.667 659.89C242.48 660.226 242.387 660.627 242.387 661.094C242.387 661.561 242.48 661.971 242.667 662.326C242.863 662.671 243.115 662.937 243.423 663.124C243.74 663.311 244.076 663.404 244.431 663.404C244.795 663.404 245.135 663.315 245.453 663.138C245.77 662.951 246.022 662.69 246.209 662.354C246.395 662.009 246.489 661.598 246.489 661.122ZM251.371 656.32C251.026 656.32 250.736 656.213 250.503 655.998C250.279 655.774 250.167 655.499 250.167 655.172C250.167 654.845 250.279 654.575 250.503 654.36C250.736 654.136 251.026 654.024 251.371 654.024C251.716 654.024 252.001 654.136 252.225 654.36C252.458 654.575 252.575 654.845 252.575 655.172C252.575 655.499 252.458 655.774 252.225 655.998C252.001 656.213 251.716 656.32 251.371 656.32ZM252.337 657.244V665H250.377V657.244H252.337ZM253.769 661.122C253.769 660.319 253.933 659.619 254.259 659.022C254.586 658.415 255.039 657.949 255.617 657.622C256.196 657.286 256.859 657.118 257.605 657.118C258.567 657.118 259.36 657.361 259.985 657.846C260.62 658.322 261.045 658.994 261.259 659.862H259.145C259.033 659.526 258.842 659.265 258.571 659.078C258.31 658.882 257.983 658.784 257.591 658.784C257.031 658.784 256.588 658.989 256.261 659.4C255.935 659.801 255.771 660.375 255.771 661.122C255.771 661.859 255.935 662.433 256.261 662.844C256.588 663.245 257.031 663.446 257.591 663.446C258.385 663.446 258.903 663.091 259.145 662.382H261.259C261.045 663.222 260.62 663.889 259.985 664.384C259.351 664.879 258.557 665.126 257.605 665.126C256.859 665.126 256.196 664.963 255.617 664.636C255.039 664.3 254.586 663.833 254.259 663.236C253.933 662.629 253.769 661.925 253.769 661.122ZM263.689 656.32C263.344 656.32 263.055 656.213 262.821 655.998C262.597 655.774 262.485 655.499 262.485 655.172C262.485 654.845 262.597 654.575 262.821 654.36C263.055 654.136 263.344 654.024 263.689 654.024C264.035 654.024 264.319 654.136 264.543 654.36C264.777 654.575 264.893 654.845 264.893 655.172C264.893 655.499 264.777 655.774 264.543 655.998C264.319 656.213 264.035 656.32 263.689 656.32ZM264.655 657.244V665H262.695V657.244H264.655ZM270.036 665.126C269.289 665.126 268.617 664.963 268.02 664.636C267.423 664.3 266.951 663.829 266.606 663.222C266.27 662.615 266.102 661.915 266.102 661.122C266.102 660.329 266.275 659.629 266.62 659.022C266.975 658.415 267.455 657.949 268.062 657.622C268.669 657.286 269.345 657.118 270.092 657.118C270.839 657.118 271.515 657.286 272.122 657.622C272.729 657.949 273.205 658.415 273.55 659.022C273.905 659.629 274.082 660.329 274.082 661.122C274.082 661.915 273.9 662.615 273.536 663.222C273.181 663.829 272.696 664.3 272.08 664.636C271.473 664.963 270.792 665.126 270.036 665.126ZM270.036 663.418C270.391 663.418 270.722 663.334 271.03 663.166C271.347 662.989 271.599 662.727 271.786 662.382C271.973 662.037 272.066 661.617 272.066 661.122C272.066 660.385 271.87 659.82 271.478 659.428C271.095 659.027 270.624 658.826 270.064 658.826C269.504 658.826 269.033 659.027 268.65 659.428C268.277 659.82 268.09 660.385 268.09 661.122C268.09 661.859 268.272 662.429 268.636 662.83C269.009 663.222 269.476 663.418 270.036 663.418ZM279.818 657.132C280.742 657.132 281.488 657.426 282.058 658.014C282.627 658.593 282.912 659.405 282.912 660.45V665H280.952V660.716C280.952 660.1 280.798 659.629 280.49 659.302C280.182 658.966 279.762 658.798 279.23 658.798C278.688 658.798 278.259 658.966 277.942 659.302C277.634 659.629 277.48 660.1 277.48 660.716V665H275.52V657.244H277.48V658.21C277.741 657.874 278.072 657.613 278.474 657.426C278.884 657.23 279.332 657.132 279.818 657.132ZM284.271 661.094C284.271 660.31 284.425 659.615 284.733 659.008C285.051 658.401 285.475 657.935 286.007 657.608C286.549 657.281 287.151 657.118 287.813 657.118C288.392 657.118 288.896 657.235 289.325 657.468C289.764 657.701 290.114 657.995 290.375 658.35V657.244H292.349V665H290.375V663.866C290.123 664.23 289.773 664.533 289.325 664.776C288.887 665.009 288.378 665.126 287.799 665.126C287.146 665.126 286.549 664.958 286.007 664.622C285.475 664.286 285.051 663.815 284.733 663.208C284.425 662.592 284.271 661.887 284.271 661.094ZM290.375 661.122C290.375 660.646 290.282 660.24 290.095 659.904C289.909 659.559 289.657 659.297 289.339 659.12C289.022 658.933 288.681 658.84 288.317 658.84C287.953 658.84 287.617 658.929 287.309 659.106C287.001 659.283 286.749 659.545 286.553 659.89C286.367 660.226 286.273 660.627 286.273 661.094C286.273 661.561 286.367 661.971 286.553 662.326C286.749 662.671 287.001 662.937 287.309 663.124C287.627 663.311 287.963 663.404 288.317 663.404C288.681 663.404 289.022 663.315 289.339 663.138C289.657 662.951 289.909 662.69 290.095 662.354C290.282 662.009 290.375 661.598 290.375 661.122ZM296.224 658.448C296.476 658.037 296.802 657.715 297.204 657.482C297.614 657.249 298.081 657.132 298.604 657.132V659.19H298.086C297.47 659.19 297.003 659.335 296.686 659.624C296.378 659.913 296.224 660.417 296.224 661.136V665H294.264V657.244H296.224V658.448ZM308.878 658.854V662.606C308.878 662.867 308.938 663.059 309.06 663.18C309.19 663.292 309.405 663.348 309.704 663.348H310.614V665H309.382C307.73 665 306.904 664.197 306.904 662.592V658.854H305.98V657.244H306.904V655.326H308.878V657.244H310.614V658.854H308.878ZM313.983 658.448C314.235 658.037 314.562 657.715 314.963 657.482C315.374 657.249 315.841 657.132 316.363 657.132V659.19H315.845C315.229 659.19 314.763 659.335 314.445 659.624C314.137 659.913 313.983 660.417 313.983 661.136V665H312.023V657.244H313.983V658.448ZM317.18 661.094C317.18 660.31 317.334 659.615 317.642 659.008C317.959 658.401 318.384 657.935 318.916 657.608C319.457 657.281 320.059 657.118 320.722 657.118C321.3 657.118 321.804 657.235 322.234 657.468C322.672 657.701 323.022 657.995 323.284 658.35V657.244H325.258V665H323.284V663.866C323.032 664.23 322.682 664.533 322.234 664.776C321.795 665.009 321.286 665.126 320.708 665.126C320.054 665.126 319.457 664.958 318.916 664.622C318.384 664.286 317.959 663.815 317.642 663.208C317.334 662.592 317.18 661.887 317.18 661.094ZM323.284 661.122C323.284 660.646 323.19 660.24 323.004 659.904C322.817 659.559 322.565 659.297 322.248 659.12C321.93 658.933 321.59 658.84 321.226 658.84C320.862 658.84 320.526 658.929 320.218 659.106C319.91 659.283 319.658 659.545 319.462 659.89C319.275 660.226 319.182 660.627 319.182 661.094C319.182 661.561 319.275 661.971 319.462 662.326C319.658 662.671 319.91 662.937 320.218 663.124C320.535 663.311 320.871 663.404 321.226 663.404C321.59 663.404 321.93 663.315 322.248 663.138C322.565 662.951 322.817 662.69 323.004 662.354C323.19 662.009 323.284 661.598 323.284 661.122ZM331.47 657.132C332.394 657.132 333.141 657.426 333.71 658.014C334.279 658.593 334.564 659.405 334.564 660.45V665H332.604V660.716C332.604 660.1 332.45 659.629 332.142 659.302C331.834 658.966 331.414 658.798 330.882 658.798C330.341 658.798 329.911 658.966 329.594 659.302C329.286 659.629 329.132 660.1 329.132 660.716V665H327.172V657.244H329.132V658.21C329.393 657.874 329.725 657.613 330.126 657.426C330.537 657.23 330.985 657.132 331.47 657.132ZM339.396 665.126C338.761 665.126 338.192 665.014 337.688 664.79C337.184 664.557 336.782 664.244 336.484 663.852C336.194 663.46 336.036 663.026 336.008 662.55H337.982C338.019 662.849 338.164 663.096 338.416 663.292C338.677 663.488 338.999 663.586 339.382 663.586C339.755 663.586 340.044 663.511 340.25 663.362C340.464 663.213 340.572 663.021 340.572 662.788C340.572 662.536 340.441 662.349 340.18 662.228C339.928 662.097 339.522 661.957 338.962 661.808C338.383 661.668 337.907 661.523 337.534 661.374C337.17 661.225 336.852 660.996 336.582 660.688C336.32 660.38 336.19 659.965 336.19 659.442C336.19 659.013 336.311 658.621 336.554 658.266C336.806 657.911 337.16 657.631 337.618 657.426C338.084 657.221 338.63 657.118 339.256 657.118C340.18 657.118 340.917 657.351 341.468 657.818C342.018 658.275 342.322 658.896 342.378 659.68H340.502C340.474 659.372 340.343 659.129 340.11 658.952C339.886 658.765 339.582 658.672 339.2 658.672C338.845 658.672 338.57 658.737 338.374 658.868C338.187 658.999 338.094 659.181 338.094 659.414C338.094 659.675 338.224 659.876 338.486 660.016C338.747 660.147 339.153 660.282 339.704 660.422C340.264 660.562 340.726 660.707 341.09 660.856C341.454 661.005 341.766 661.239 342.028 661.556C342.298 661.864 342.438 662.275 342.448 662.788C342.448 663.236 342.322 663.637 342.07 663.992C341.827 664.347 341.472 664.627 341.006 664.832C340.548 665.028 340.012 665.126 339.396 665.126ZM343.553 661.094C343.553 660.31 343.707 659.615 344.015 659.008C344.332 658.401 344.757 657.935 345.289 657.608C345.83 657.281 346.432 657.118 347.095 657.118C347.673 657.118 348.177 657.235 348.607 657.468C349.045 657.701 349.395 657.995 349.657 658.35V657.244H351.631V665H349.657V663.866C349.405 664.23 349.055 664.533 348.607 664.776C348.168 665.009 347.659 665.126 347.081 665.126C346.427 665.126 345.83 664.958 345.289 664.622C344.757 664.286 344.332 663.815 344.015 663.208C343.707 662.592 343.553 661.887 343.553 661.094ZM349.657 661.122C349.657 660.646 349.563 660.24 349.377 659.904C349.19 659.559 348.938 659.297 348.621 659.12C348.303 658.933 347.963 658.84 347.599 658.84C347.235 658.84 346.899 658.929 346.591 659.106C346.283 659.283 346.031 659.545 345.835 659.89C345.648 660.226 345.555 660.627 345.555 661.094C345.555 661.561 345.648 661.971 345.835 662.326C346.031 662.671 346.283 662.937 346.591 663.124C346.908 663.311 347.244 663.404 347.599 663.404C347.963 663.404 348.303 663.315 348.621 663.138C348.938 662.951 349.19 662.69 349.377 662.354C349.563 662.009 349.657 661.598 349.657 661.122ZM356.863 663.446C357.656 663.446 358.174 663.091 358.417 662.382H360.531C360.335 663.138 359.971 663.754 359.439 664.23C358.916 664.706 358.258 664.991 357.465 665.084V665.63C357.978 665.63 358.408 665.761 358.753 666.022C359.108 666.283 359.285 666.661 359.285 667.156C359.285 667.66 359.103 668.047 358.739 668.318C358.384 668.589 357.946 668.724 357.423 668.724H355.435V667.576H357.101C357.325 667.576 357.493 667.543 357.605 667.478C357.726 667.413 357.787 667.296 357.787 667.128C357.787 666.96 357.726 666.843 357.605 666.778C357.493 666.722 357.325 666.694 357.101 666.694H356.233V665.084C355.598 664.991 355.038 664.771 354.553 664.426C354.077 664.071 353.704 663.614 353.433 663.054C353.172 662.485 353.041 661.841 353.041 661.122C353.041 660.319 353.204 659.619 353.531 659.022C353.858 658.415 354.31 657.949 354.889 657.622C355.468 657.286 356.13 657.118 356.877 657.118C357.838 657.118 358.632 657.361 359.257 657.846C359.892 658.322 360.316 658.994 360.531 659.862H358.417C358.305 659.526 358.114 659.265 357.843 659.078C357.582 658.882 357.255 658.784 356.863 658.784C356.303 658.784 355.86 658.989 355.533 659.4C355.206 659.801 355.043 660.375 355.043 661.122C355.043 661.859 355.206 662.433 355.533 662.844C355.86 663.245 356.303 663.446 356.863 663.446ZM361.463 661.094C361.463 660.31 361.617 659.615 361.925 659.008C362.242 658.401 362.667 657.935 363.199 657.608C363.74 657.281 364.342 657.118 365.005 657.118C365.584 657.118 366.088 657.235 366.517 657.468C366.956 657.701 367.306 657.995 367.567 658.35V657.244H369.541V665H367.567V663.866C367.315 664.23 366.965 664.533 366.517 664.776C366.078 665.009 365.57 665.126 364.991 665.126C364.338 665.126 363.74 664.958 363.199 664.622C362.667 664.286 362.242 663.815 361.925 663.208C361.617 662.592 361.463 661.887 361.463 661.094ZM367.567 661.122C367.567 660.646 367.474 660.24 367.287 659.904C367.1 659.559 366.848 659.297 366.531 659.12C366.214 658.933 365.873 658.84 365.509 658.84C365.145 658.84 364.809 658.929 364.501 659.106C364.193 659.283 363.941 659.545 363.745 659.89C363.558 660.226 363.465 660.627 363.465 661.094C363.465 661.561 363.558 661.971 363.745 662.326C363.941 662.671 364.193 662.937 364.501 663.124C364.818 663.311 365.154 663.404 365.509 663.404C365.873 663.404 366.214 663.315 366.531 663.138C366.848 662.951 367.1 662.69 367.287 662.354C367.474 662.009 367.567 661.598 367.567 661.122ZM363.255 656.502C363.339 655.886 363.53 655.429 363.829 655.13C364.137 654.822 364.524 654.668 364.991 654.668C365.187 654.668 365.36 654.701 365.509 654.766C365.658 654.822 365.826 654.906 366.013 655.018C366.293 655.195 366.526 655.284 366.713 655.284C367.058 655.284 367.259 655.083 367.315 654.682H368.365C368.281 655.298 368.085 655.76 367.777 656.068C367.478 656.367 367.096 656.516 366.629 656.516C366.433 656.516 366.26 656.488 366.111 656.432C365.962 656.367 365.794 656.278 365.607 656.166C365.336 655.979 365.103 655.886 364.907 655.886C364.562 655.886 364.356 656.091 364.291 656.502H363.255ZM374.899 665.126C374.152 665.126 373.48 664.963 372.883 664.636C372.286 664.3 371.814 663.829 371.469 663.222C371.133 662.615 370.965 661.915 370.965 661.122C370.965 660.329 371.138 659.629 371.483 659.022C371.838 658.415 372.318 657.949 372.925 657.622C373.532 657.286 374.208 657.118 374.955 657.118C375.702 657.118 376.378 657.286 376.985 657.622C377.592 657.949 378.068 658.415 378.413 659.022C378.768 659.629 378.945 660.329 378.945 661.122C378.945 661.915 378.763 662.615 378.399 663.222C378.044 663.829 377.559 664.3 376.943 664.636C376.336 664.963 375.655 665.126 374.899 665.126ZM374.899 663.418C375.254 663.418 375.585 663.334 375.893 663.166C376.21 662.989 376.462 662.727 376.649 662.382C376.836 662.037 376.929 661.617 376.929 661.122C376.929 660.385 376.733 659.82 376.341 659.428C375.958 659.027 375.487 658.826 374.927 658.826C374.367 658.826 373.896 659.027 373.513 659.428C373.14 659.82 372.953 660.385 372.953 661.122C372.953 661.859 373.135 662.429 373.499 662.83C373.872 663.222 374.339 663.418 374.899 663.418Z" fill="white"/>
<path d="M173.301 394.96V409H169.881V403.22H164.561V409H161.141V394.96H164.561V400.46H169.881V394.96H173.301ZM177.49 396.68C176.89 396.68 176.397 396.507 176.01 396.16C175.637 395.8 175.45 395.36 175.45 394.84C175.45 394.307 175.637 393.867 176.01 393.52C176.397 393.16 176.89 392.98 177.49 392.98C178.077 392.98 178.557 393.16 178.93 393.52C179.317 393.867 179.51 394.307 179.51 394.84C179.51 395.36 179.317 395.8 178.93 396.16C178.557 396.507 178.077 396.68 177.49 396.68ZM179.19 397.84V409H175.77V397.84H179.19ZM186.209 409.16C185.235 409.16 184.369 408.993 183.609 408.66C182.849 408.327 182.249 407.873 181.809 407.3C181.369 406.713 181.122 406.06 181.069 405.34H184.449C184.489 405.727 184.669 406.04 184.989 406.28C185.309 406.52 185.702 406.64 186.169 406.64C186.595 406.64 186.922 406.56 187.149 406.4C187.389 406.227 187.509 406.007 187.509 405.74C187.509 405.42 187.342 405.187 187.009 405.04C186.675 404.88 186.135 404.707 185.389 404.52C184.589 404.333 183.922 404.14 183.389 403.94C182.855 403.727 182.395 403.4 182.009 402.96C181.622 402.507 181.429 401.9 181.429 401.14C181.429 400.5 181.602 399.92 181.949 399.4C182.309 398.867 182.829 398.447 183.509 398.14C184.202 397.833 185.022 397.68 185.969 397.68C187.369 397.68 188.469 398.027 189.269 398.72C190.082 399.413 190.549 400.333 190.669 401.48H187.509C187.455 401.093 187.282 400.787 186.989 400.56C186.709 400.333 186.335 400.22 185.869 400.22C185.469 400.22 185.162 400.3 184.949 400.46C184.735 400.607 184.629 400.813 184.629 401.08C184.629 401.4 184.795 401.64 185.129 401.8C185.475 401.96 186.009 402.12 186.729 402.28C187.555 402.493 188.229 402.707 188.749 402.92C189.269 403.12 189.722 403.453 190.109 403.92C190.509 404.373 190.715 404.987 190.729 405.76C190.729 406.413 190.542 407 190.169 407.52C189.809 408.027 189.282 408.427 188.589 408.72C187.909 409.013 187.115 409.16 186.209 409.16ZM199.041 406.1V409H197.301C196.061 409 195.094 408.7 194.401 408.1C193.708 407.487 193.361 406.493 193.361 405.12V400.68H192.001V397.84H193.361V395.12H196.781V397.84H199.021V400.68H196.781V405.16C196.781 405.493 196.861 405.733 197.021 405.88C197.181 406.027 197.448 406.1 197.821 406.1H199.041ZM206.026 409.16C204.933 409.16 203.946 408.927 203.066 408.46C202.199 407.993 201.513 407.327 201.006 406.46C200.513 405.593 200.266 404.58 200.266 403.42C200.266 402.273 200.519 401.267 201.026 400.4C201.533 399.52 202.226 398.847 203.106 398.38C203.986 397.913 204.973 397.68 206.066 397.68C207.159 397.68 208.146 397.913 209.026 398.38C209.906 398.847 210.599 399.52 211.106 400.4C211.613 401.267 211.866 402.273 211.866 403.42C211.866 404.567 211.606 405.58 211.086 406.46C210.579 407.327 209.879 407.993 208.986 408.46C208.106 408.927 207.119 409.16 206.026 409.16ZM206.026 406.2C206.679 406.2 207.233 405.96 207.686 405.48C208.153 405 208.386 404.313 208.386 403.42C208.386 402.527 208.159 401.84 207.706 401.36C207.266 400.88 206.719 400.64 206.066 400.64C205.399 400.64 204.846 400.88 204.406 401.36C203.966 401.827 203.746 402.513 203.746 403.42C203.746 404.313 203.959 405 204.386 405.48C204.826 405.96 205.373 406.2 206.026 406.2ZM208.666 394.98L203.846 397V394.64L208.666 392.32V394.98ZM217.1 399.7C217.5 399.087 218 398.607 218.6 398.26C219.2 397.9 219.867 397.72 220.6 397.72V401.34H219.66C218.807 401.34 218.167 401.527 217.74 401.9C217.314 402.26 217.1 402.9 217.1 403.82V409H213.68V397.84H217.1V399.7ZM223.955 396.68C223.355 396.68 222.862 396.507 222.475 396.16C222.102 395.8 221.915 395.36 221.915 394.84C221.915 394.307 222.102 393.867 222.475 393.52C222.862 393.16 223.355 392.98 223.955 392.98C224.542 392.98 225.022 393.16 225.395 393.52C225.782 393.867 225.975 394.307 225.975 394.84C225.975 395.36 225.782 395.8 225.395 396.16C225.022 396.507 224.542 396.68 223.955 396.68ZM225.655 397.84V409H222.235V397.84H225.655ZM227.453 403.42C227.453 402.26 227.687 401.247 228.153 400.38C228.633 399.513 229.293 398.847 230.133 398.38C230.987 397.913 231.96 397.68 233.053 397.68C234.453 397.68 235.62 398.047 236.553 398.78C237.5 399.513 238.12 400.547 238.413 401.88H234.773C234.467 401.027 233.873 400.6 232.993 400.6C232.367 400.6 231.867 400.847 231.493 401.34C231.12 401.82 230.933 402.513 230.933 403.42C230.933 404.327 231.12 405.027 231.493 405.52C231.867 406 232.367 406.24 232.993 406.24C233.873 406.24 234.467 405.813 234.773 404.96H238.413C238.12 406.267 237.5 407.293 236.553 408.04C235.607 408.787 234.44 409.16 233.053 409.16C231.96 409.16 230.987 408.927 230.133 408.46C229.293 407.993 228.633 407.327 228.153 406.46C227.687 405.593 227.453 404.58 227.453 403.42ZM245.323 409.16C244.229 409.16 243.243 408.927 242.363 408.46C241.496 407.993 240.809 407.327 240.303 406.46C239.809 405.593 239.563 404.58 239.563 403.42C239.563 402.273 239.816 401.267 240.323 400.4C240.829 399.52 241.523 398.847 242.403 398.38C243.283 397.913 244.269 397.68 245.363 397.68C246.456 397.68 247.443 397.913 248.323 398.38C249.203 398.847 249.896 399.52 250.403 400.4C250.909 401.267 251.163 402.273 251.163 403.42C251.163 404.567 250.903 405.58 250.383 406.46C249.876 407.327 249.176 407.993 248.283 408.46C247.403 408.927 246.416 409.16 245.323 409.16ZM245.323 406.2C245.976 406.2 246.529 405.96 246.983 405.48C247.449 405 247.683 404.313 247.683 403.42C247.683 402.527 247.456 401.84 247.003 401.36C246.563 400.88 246.016 400.64 245.363 400.64C244.696 400.64 244.143 400.88 243.703 401.36C243.263 401.827 243.043 402.513 243.043 403.42C243.043 404.313 243.256 405 243.683 405.48C244.123 405.96 244.669 406.2 245.323 406.2Z" fill="black"/>
<rect x="144.901" y="193" width="300" height="128" rx="10" fill="#FAFAFA"/>
<path d="M187.341 279L182.669 270.52H181.357V279H175.885V256.536H185.069C186.84 256.536 188.344 256.845 189.581 257.464C190.84 258.083 191.779 258.936 192.397 260.024C193.016 261.091 193.325 262.285 193.325 263.608C193.325 265.101 192.899 266.435 192.045 267.608C191.213 268.781 189.976 269.613 188.333 270.104L193.517 279H187.341ZM181.357 266.648H184.749C185.752 266.648 186.499 266.403 186.989 265.912C187.501 265.421 187.757 264.728 187.757 263.832C187.757 262.979 187.501 262.307 186.989 261.816C186.499 261.325 185.752 261.08 184.749 261.08H181.357V266.648ZM213.752 272.472C213.752 273.645 213.443 274.733 212.824 275.736C212.227 276.717 211.331 277.528 210.136 278.168C208.963 278.787 207.566 279.128 205.944 279.192V281.784H203.896V279.16C201.635 278.968 199.811 278.296 198.424 277.144C197.038 275.971 196.302 274.381 196.216 272.376H202.04C202.168 273.656 202.787 274.477 203.896 274.84V269.784C202.232 269.357 200.899 268.941 199.896 268.536C198.915 268.131 198.051 267.48 197.304 266.584C196.558 265.688 196.184 264.461 196.184 262.904C196.184 260.963 196.899 259.405 198.328 258.232C199.779 257.059 201.635 256.397 203.896 256.248V253.656H205.944V256.248C208.184 256.419 209.955 257.069 211.256 258.2C212.558 259.331 213.283 260.899 213.432 262.904H207.576C207.448 261.752 206.904 261.005 205.944 260.664V265.624C207.715 266.115 209.08 266.552 210.04 266.936C211 267.32 211.854 267.96 212.6 268.856C213.368 269.731 213.752 270.936 213.752 272.472ZM201.976 262.648C201.976 263.181 202.136 263.629 202.456 263.992C202.798 264.355 203.278 264.675 203.896 264.952V260.504C203.299 260.611 202.83 260.845 202.488 261.208C202.147 261.549 201.976 262.029 201.976 262.648ZM205.944 274.936C206.584 274.829 207.086 274.573 207.448 274.168C207.832 273.763 208.024 273.261 208.024 272.664C208.024 272.109 207.843 271.661 207.48 271.32C207.139 270.957 206.627 270.648 205.944 270.392V274.936ZM223.868 274.616C224.593 274.04 224.924 273.773 224.86 273.816C226.951 272.088 228.593 270.669 229.788 269.56C231.004 268.451 232.028 267.288 232.86 266.072C233.692 264.856 234.108 263.672 234.108 262.52C234.108 261.645 233.905 260.963 233.5 260.472C233.095 259.981 232.487 259.736 231.676 259.736C230.865 259.736 230.225 260.045 229.756 260.664C229.308 261.261 229.084 262.115 229.084 263.224H223.804C223.847 261.411 224.231 259.896 224.956 258.68C225.703 257.464 226.673 256.568 227.868 255.992C229.084 255.416 230.428 255.128 231.9 255.128C234.439 255.128 236.348 255.779 237.628 257.08C238.929 258.381 239.58 260.077 239.58 262.168C239.58 264.451 238.801 266.573 237.244 268.536C235.687 270.477 233.703 272.376 231.292 274.232H239.932V278.68H223.868V274.616ZM257.253 259.736L249.221 279H243.621L251.749 260.344H241.797V255.672H257.253V259.736ZM275.914 260.408H265.93V264.824C266.357 264.355 266.954 263.971 267.722 263.672C268.49 263.373 269.322 263.224 270.218 263.224C271.818 263.224 273.141 263.587 274.186 264.312C275.253 265.037 276.032 265.976 276.522 267.128C277.013 268.28 277.258 269.528 277.258 270.872C277.258 273.368 276.554 275.352 275.146 276.824C273.738 278.275 271.754 279 269.194 279C267.488 279 266.005 278.712 264.746 278.136C263.488 277.539 262.517 276.717 261.834 275.672C261.152 274.627 260.778 273.421 260.714 272.056H266.058C266.186 272.717 266.496 273.272 266.986 273.72C267.477 274.147 268.149 274.36 269.002 274.36C270.005 274.36 270.752 274.04 271.242 273.4C271.733 272.76 271.978 271.907 271.978 270.84C271.978 269.795 271.722 268.995 271.21 268.44C270.698 267.885 269.952 267.608 268.97 267.608C268.245 267.608 267.648 267.789 267.178 268.152C266.709 268.493 266.4 268.952 266.25 269.528H260.97V255.608H275.914V260.408ZM280.279 267C280.279 263.331 280.983 260.44 282.391 258.328C283.82 256.216 286.113 255.16 289.271 255.16C292.428 255.16 294.711 256.216 296.119 258.328C297.548 260.44 298.263 263.331 298.263 267C298.263 270.712 297.548 273.624 296.119 275.736C294.711 277.848 292.428 278.904 289.271 278.904C286.113 278.904 283.82 277.848 282.391 275.736C280.983 273.624 280.279 270.712 280.279 267ZM292.887 267C292.887 264.845 292.652 263.192 292.183 262.04C291.713 260.867 290.743 260.28 289.271 260.28C287.799 260.28 286.828 260.867 286.359 262.04C285.889 263.192 285.655 264.845 285.655 267C285.655 268.451 285.74 269.656 285.911 270.616C286.081 271.555 286.423 272.323 286.935 272.92C287.468 273.496 288.247 273.784 289.271 273.784C290.295 273.784 291.063 273.496 291.575 272.92C292.108 272.323 292.46 271.555 292.631 270.616C292.801 269.656 292.887 268.451 292.887 267ZM304.258 279.256C303.298 279.256 302.508 278.979 301.89 278.424C301.292 277.848 300.994 277.144 300.994 276.312C300.994 275.459 301.292 274.744 301.89 274.168C302.508 273.592 303.298 273.304 304.258 273.304C305.196 273.304 305.964 273.592 306.562 274.168C307.18 274.744 307.49 275.459 307.49 276.312C307.49 277.144 307.18 277.848 306.562 278.424C305.964 278.979 305.196 279.256 304.258 279.256ZM310.377 262.232C310.462 259.949 311.209 258.189 312.617 256.952C314.025 255.715 315.934 255.096 318.345 255.096C319.945 255.096 321.31 255.373 322.441 255.928C323.593 256.483 324.457 257.24 325.033 258.2C325.63 259.16 325.929 260.237 325.929 261.432C325.929 262.84 325.577 263.992 324.873 264.888C324.169 265.763 323.348 266.36 322.409 266.68V266.808C323.625 267.213 324.585 267.885 325.289 268.824C325.993 269.763 326.345 270.968 326.345 272.44C326.345 273.763 326.036 274.936 325.417 275.96C324.82 276.963 323.934 277.752 322.761 278.328C321.609 278.904 320.233 279.192 318.633 279.192C316.073 279.192 314.025 278.563 312.489 277.304C310.974 276.045 310.174 274.147 310.089 271.608H315.401C315.422 272.547 315.689 273.293 316.201 273.848C316.713 274.381 317.46 274.648 318.441 274.648C319.273 274.648 319.913 274.413 320.361 273.944C320.83 273.453 321.065 272.813 321.065 272.024C321.065 271 320.734 270.264 320.073 269.816C319.433 269.347 318.398 269.112 316.969 269.112H315.945V264.664H316.969C318.057 264.664 318.932 264.483 319.593 264.12C320.276 263.736 320.617 263.064 320.617 262.104C320.617 261.336 320.404 260.739 319.977 260.312C319.55 259.885 318.964 259.672 318.217 259.672C317.406 259.672 316.798 259.917 316.393 260.408C316.009 260.899 315.785 261.507 315.721 262.232H310.377ZM341.112 261.944C340.941 261.155 340.643 260.568 340.216 260.184C339.789 259.779 339.181 259.576 338.392 259.576C337.176 259.576 336.301 260.109 335.768 261.176C335.235 262.221 334.957 263.885 334.936 266.168C335.405 265.421 336.077 264.835 336.952 264.408C337.848 263.981 338.829 263.768 339.896 263.768C341.987 263.768 343.661 264.429 344.92 265.752C346.2 267.075 346.84 268.92 346.84 271.288C346.84 272.845 346.52 274.211 345.88 275.384C345.261 276.557 344.344 277.475 343.128 278.136C341.933 278.797 340.515 279.128 338.872 279.128C335.587 279.128 333.304 278.104 332.024 276.056C330.744 273.987 330.104 271.021 330.104 267.16C330.104 263.107 330.776 260.099 332.12 258.136C333.485 256.152 335.661 255.16 338.648 255.16C340.248 255.16 341.592 255.48 342.68 256.12C343.789 256.739 344.621 257.56 345.176 258.584C345.752 259.608 346.093 260.728 346.2 261.944H341.112ZM338.584 268.088C337.667 268.088 336.899 268.365 336.28 268.92C335.683 269.453 335.384 270.221 335.384 271.224C335.384 272.248 335.661 273.048 336.216 273.624C336.792 274.2 337.603 274.488 338.648 274.488C339.587 274.488 340.323 274.211 340.856 273.656C341.411 273.08 341.688 272.301 341.688 271.32C341.688 270.317 341.421 269.528 340.888 268.952C340.355 268.376 339.587 268.088 338.584 268.088Z" fill="black"/>
<path d="M179.265 237.126C178.437 237.126 177.693 236.982 177.033 236.694C176.385 236.394 175.875 235.986 175.503 235.47C175.131 234.942 174.939 234.336 174.927 233.652H176.673C176.733 234.24 176.973 234.738 177.393 235.146C177.825 235.542 178.449 235.74 179.265 235.74C180.045 235.74 180.657 235.548 181.101 235.164C181.557 234.768 181.785 234.264 181.785 233.652C181.785 233.172 181.653 232.782 181.389 232.482C181.125 232.182 180.795 231.954 180.399 231.798C180.003 231.642 179.469 231.474 178.797 231.294C177.969 231.078 177.303 230.862 176.799 230.646C176.307 230.43 175.881 230.094 175.521 229.638C175.173 229.17 174.999 228.546 174.999 227.766C174.999 227.082 175.173 226.476 175.521 225.948C175.869 225.42 176.355 225.012 176.979 224.724C177.615 224.436 178.341 224.292 179.157 224.292C180.333 224.292 181.293 224.586 182.037 225.174C182.793 225.762 183.219 226.542 183.315 227.514H181.515C181.455 227.034 181.203 226.614 180.759 226.254C180.315 225.882 179.727 225.696 178.995 225.696C178.311 225.696 177.753 225.876 177.321 226.236C176.889 226.584 176.673 227.076 176.673 227.712C176.673 228.168 176.799 228.54 177.051 228.828C177.315 229.116 177.633 229.338 178.005 229.494C178.389 229.638 178.923 229.806 179.607 229.998C180.435 230.226 181.101 230.454 181.605 230.682C182.109 230.898 182.541 231.24 182.901 231.708C183.261 232.164 183.441 232.788 183.441 233.58C183.441 234.192 183.279 234.768 182.955 235.308C182.631 235.848 182.151 236.286 181.515 236.622C180.879 236.958 180.129 237.126 179.265 237.126ZM185.24 232.032C185.24 231.024 185.444 230.142 185.852 229.386C186.26 228.618 186.818 228.024 187.526 227.604C188.246 227.184 189.044 226.974 189.92 226.974C190.784 226.974 191.534 227.16 192.17 227.532C192.806 227.904 193.28 228.372 193.592 228.936V227.136H195.248V237H193.592V235.164C193.268 235.74 192.782 236.22 192.134 236.604C191.498 236.976 190.754 237.162 189.902 237.162C189.026 237.162 188.234 236.946 187.526 236.514C186.818 236.082 186.26 235.476 185.852 234.696C185.444 233.916 185.24 233.028 185.24 232.032ZM193.592 232.05C193.592 231.306 193.442 230.658 193.142 230.106C192.842 229.554 192.434 229.134 191.918 228.846C191.414 228.546 190.856 228.396 190.244 228.396C189.632 228.396 189.074 228.54 188.57 228.828C188.066 229.116 187.664 229.536 187.364 230.088C187.064 230.64 186.914 231.288 186.914 232.032C186.914 232.788 187.064 233.448 187.364 234.012C187.664 234.564 188.066 234.99 188.57 235.29C189.074 235.578 189.632 235.722 190.244 235.722C190.856 235.722 191.414 235.578 191.918 235.29C192.434 234.99 192.842 234.564 193.142 234.012C193.442 233.448 193.592 232.794 193.592 232.05ZM199.654 223.68V237H198.016V223.68H199.654ZM201.833 232.032C201.833 231.024 202.037 230.142 202.445 229.386C202.853 228.618 203.411 228.024 204.119 227.604C204.839 227.184 205.643 226.974 206.531 226.974C207.299 226.974 208.013 227.154 208.673 227.514C209.333 227.862 209.837 228.324 210.185 228.9V223.68H211.841V237H210.185V235.146C209.861 235.734 209.381 236.22 208.745 236.604C208.109 236.976 207.365 237.162 206.513 237.162C205.637 237.162 204.839 236.946 204.119 236.514C203.411 236.082 202.853 235.476 202.445 234.696C202.037 233.916 201.833 233.028 201.833 232.032ZM210.185 232.05C210.185 231.306 210.035 230.658 209.735 230.106C209.435 229.554 209.027 229.134 208.511 228.846C208.007 228.546 207.449 228.396 206.837 228.396C206.225 228.396 205.667 228.54 205.163 228.828C204.659 229.116 204.257 229.536 203.957 230.088C203.657 230.64 203.507 231.288 203.507 232.032C203.507 232.788 203.657 233.448 203.957 234.012C204.257 234.564 204.659 234.99 205.163 235.29C205.667 235.578 206.225 235.722 206.837 235.722C207.449 235.722 208.007 235.578 208.511 235.29C209.027 234.99 209.435 234.564 209.735 234.012C210.035 233.448 210.185 232.794 210.185 232.05ZM218.912 237.162C217.988 237.162 217.148 236.952 216.392 236.532C215.648 236.112 215.06 235.518 214.628 234.75C214.208 233.97 213.998 233.07 213.998 232.05C213.998 231.042 214.214 230.154 214.646 229.386C215.09 228.606 215.69 228.012 216.446 227.604C217.202 227.184 218.048 226.974 218.984 226.974C219.92 226.974 220.766 227.184 221.522 227.604C222.278 228.012 222.872 228.6 223.304 229.368C223.748 230.136 223.97 231.03 223.97 232.05C223.97 233.07 223.742 233.97 223.286 234.75C222.842 235.518 222.236 236.112 221.468 236.532C220.7 236.952 219.848 237.162 218.912 237.162ZM218.912 235.722C219.5 235.722 220.052 235.584 220.568 235.308C221.084 235.032 221.498 234.618 221.81 234.066C222.134 233.514 222.296 232.842 222.296 232.05C222.296 231.258 222.14 230.586 221.828 230.034C221.516 229.482 221.108 229.074 220.604 228.81C220.1 228.534 219.554 228.396 218.966 228.396C218.366 228.396 217.814 228.534 217.31 228.81C216.818 229.074 216.422 229.482 216.122 230.034C215.822 230.586 215.672 231.258 215.672 232.05C215.672 232.854 215.816 233.532 216.104 234.084C216.404 234.636 216.8 235.05 217.292 235.326C217.784 235.59 218.324 235.722 218.912 235.722ZM230.31 232.032C230.31 231.024 230.514 230.142 230.922 229.386C231.33 228.618 231.888 228.024 232.596 227.604C233.316 227.184 234.114 226.974 234.99 226.974C235.854 226.974 236.604 227.16 237.24 227.532C237.876 227.904 238.35 228.372 238.662 228.936V227.136H240.318V237H238.662V235.164C238.338 235.74 237.852 236.22 237.204 236.604C236.568 236.976 235.824 237.162 234.972 237.162C234.096 237.162 233.304 236.946 232.596 236.514C231.888 236.082 231.33 235.476 230.922 234.696C230.514 233.916 230.31 233.028 230.31 232.032ZM238.662 232.05C238.662 231.306 238.512 230.658 238.212 230.106C237.912 229.554 237.504 229.134 236.988 228.846C236.484 228.546 235.926 228.396 235.314 228.396C234.702 228.396 234.144 228.54 233.64 228.828C233.136 229.116 232.734 229.536 232.434 230.088C232.134 230.64 231.984 231.288 231.984 232.032C231.984 232.788 232.134 233.448 232.434 234.012C232.734 234.564 233.136 234.99 233.64 235.29C234.144 235.578 234.702 235.722 235.314 235.722C235.926 235.722 236.484 235.578 236.988 235.29C237.504 234.99 237.912 234.564 238.212 234.012C238.512 233.448 238.662 232.794 238.662 232.05ZM245.084 228.486V234.3C245.084 234.78 245.186 235.122 245.39 235.326C245.594 235.518 245.948 235.614 246.452 235.614H247.658V237H246.182C245.27 237 244.586 236.79 244.13 236.37C243.674 235.95 243.446 235.26 243.446 234.3V228.486H242.168V227.136H243.446V224.652H245.084V227.136H247.658V228.486H245.084ZM258.391 227.136V237H256.753V235.542C256.441 236.046 256.003 236.442 255.439 236.73C254.887 237.006 254.275 237.144 253.603 237.144C252.835 237.144 252.145 236.988 251.533 236.676C250.921 236.352 250.435 235.872 250.075 235.236C249.727 234.6 249.553 233.826 249.553 232.914V227.136H251.173V232.698C251.173 233.67 251.419 234.42 251.911 234.948C252.403 235.464 253.075 235.722 253.927 235.722C254.803 235.722 255.493 235.452 255.997 234.912C256.501 234.372 256.753 233.586 256.753 232.554V227.136H258.391ZM260.544 232.032C260.544 231.024 260.748 230.142 261.156 229.386C261.564 228.618 262.122 228.024 262.83 227.604C263.55 227.184 264.348 226.974 265.224 226.974C266.088 226.974 266.838 227.16 267.474 227.532C268.11 227.904 268.584 228.372 268.896 228.936V227.136H270.552V237H268.896V235.164C268.572 235.74 268.086 236.22 267.438 236.604C266.802 236.976 266.058 237.162 265.206 237.162C264.33 237.162 263.538 236.946 262.83 236.514C262.122 236.082 261.564 235.476 261.156 234.696C260.748 233.916 260.544 233.028 260.544 232.032ZM268.896 232.05C268.896 231.306 268.746 230.658 268.446 230.106C268.146 229.554 267.738 229.134 267.222 228.846C266.718 228.546 266.16 228.396 265.548 228.396C264.936 228.396 264.378 228.54 263.874 228.828C263.37 229.116 262.968 229.536 262.668 230.088C262.368 230.64 262.218 231.288 262.218 232.032C262.218 232.788 262.368 233.448 262.668 234.012C262.968 234.564 263.37 234.99 263.874 235.29C264.378 235.578 264.936 235.722 265.548 235.722C266.16 235.722 266.718 235.578 267.222 235.29C267.738 234.99 268.146 234.564 268.446 234.012C268.746 233.448 268.896 232.794 268.896 232.05ZM274.958 223.68V237H273.32V223.68H274.958Z" fill="black" fill-opacity="0.5"/>
<path d="M168.421 160.82C168.928 160.9 169.388 161.107 169.801 161.44C170.228 161.773 170.561 162.187 170.801 162.68C171.055 163.173 171.181 163.7 171.181 164.26C171.181 164.967 171.001 165.607 170.641 166.18C170.281 166.74 169.755 167.187 169.061 167.52C168.381 167.84 167.575 168 166.641 168H161.441V154.06H166.441C167.388 154.06 168.195 154.22 168.861 154.54C169.528 154.847 170.028 155.267 170.361 155.8C170.695 156.333 170.861 156.933 170.861 157.6C170.861 158.427 170.635 159.113 170.181 159.66C169.741 160.193 169.155 160.58 168.421 160.82ZM163.261 160.08H166.321C167.175 160.08 167.835 159.88 168.301 159.48C168.768 159.08 169.001 158.527 169.001 157.82C169.001 157.113 168.768 156.56 168.301 156.16C167.835 155.76 167.161 155.56 166.281 155.56H163.261V160.08ZM166.481 166.5C167.388 166.5 168.095 166.287 168.601 165.86C169.108 165.433 169.361 164.84 169.361 164.08C169.361 163.307 169.095 162.7 168.561 162.26C168.028 161.807 167.315 161.58 166.421 161.58H163.261V166.5H166.481ZM178.487 168.18C177.46 168.18 176.527 167.947 175.687 167.48C174.86 167.013 174.207 166.353 173.727 165.5C173.26 164.633 173.027 163.633 173.027 162.5C173.027 161.38 173.267 160.393 173.747 159.54C174.24 158.673 174.907 158.013 175.747 157.56C176.587 157.093 177.527 156.86 178.567 156.86C179.607 156.86 180.547 157.093 181.387 157.56C182.227 158.013 182.887 158.667 183.367 159.52C183.86 160.373 184.107 161.367 184.107 162.5C184.107 163.633 183.854 164.633 183.347 165.5C182.854 166.353 182.18 167.013 181.327 167.48C180.474 167.947 179.527 168.18 178.487 168.18ZM178.487 166.58C179.14 166.58 179.754 166.427 180.327 166.12C180.9 165.813 181.36 165.353 181.707 164.74C182.067 164.127 182.247 163.38 182.247 162.5C182.247 161.62 182.074 160.873 181.727 160.26C181.38 159.647 180.927 159.193 180.367 158.9C179.807 158.593 179.2 158.44 178.547 158.44C177.88 158.44 177.267 158.593 176.707 158.9C176.16 159.193 175.72 159.647 175.387 160.26C175.054 160.873 174.887 161.62 174.887 162.5C174.887 163.393 175.047 164.147 175.367 164.76C175.7 165.373 176.14 165.833 176.687 166.14C177.234 166.433 177.834 166.58 178.487 166.58ZM185.82 162.48C185.82 161.36 186.047 160.38 186.5 159.54C186.953 158.687 187.573 158.027 188.36 157.56C189.16 157.093 190.047 156.86 191.02 156.86C191.98 156.86 192.813 157.067 193.52 157.48C194.227 157.893 194.753 158.413 195.1 159.04V157.04H196.94V168H195.1V165.96C194.74 166.6 194.2 167.133 193.48 167.56C192.773 167.973 191.947 168.18 191 168.18C190.027 168.18 189.147 167.94 188.36 167.46C187.573 166.98 186.953 166.307 186.5 165.44C186.047 164.573 185.82 163.587 185.82 162.48ZM195.1 162.5C195.1 161.673 194.933 160.953 194.6 160.34C194.267 159.727 193.813 159.26 193.24 158.94C192.68 158.607 192.06 158.44 191.38 158.44C190.7 158.44 190.08 158.6 189.52 158.92C188.96 159.24 188.513 159.707 188.18 160.32C187.847 160.933 187.68 161.653 187.68 162.48C187.68 163.32 187.847 164.053 188.18 164.68C188.513 165.293 188.96 165.767 189.52 166.1C190.08 166.42 190.7 166.58 191.38 166.58C192.06 166.58 192.68 166.42 193.24 166.1C193.813 165.767 194.267 165.293 194.6 164.68C194.933 164.053 195.1 163.327 195.1 162.5ZM207.567 158.54V165C207.567 165.533 207.681 165.913 207.907 166.14C208.134 166.353 208.527 166.46 209.087 166.46H210.427V168H208.787C207.774 168 207.014 167.767 206.507 167.3C206.001 166.833 205.747 166.067 205.747 165V158.54H204.327V157.04H205.747V154.28H207.567V157.04H210.427V158.54H207.567ZM211.953 162.48C211.953 161.36 212.179 160.38 212.633 159.54C213.086 158.687 213.706 158.027 214.493 157.56C215.293 157.093 216.179 156.86 217.153 156.86C218.113 156.86 218.946 157.067 219.653 157.48C220.359 157.893 220.886 158.413 221.233 159.04V157.04H223.073V168H221.233V165.96C220.873 166.6 220.333 167.133 219.613 167.56C218.906 167.973 218.079 168.18 217.133 168.18C216.159 168.18 215.279 167.94 214.493 167.46C213.706 166.98 213.086 166.307 212.633 165.44C212.179 164.573 211.953 163.587 211.953 162.48ZM221.233 162.5C221.233 161.673 221.066 160.953 220.733 160.34C220.399 159.727 219.946 159.26 219.373 158.94C218.813 158.607 218.193 158.44 217.513 158.44C216.833 158.44 216.213 158.6 215.653 158.92C215.093 159.24 214.646 159.707 214.313 160.32C213.979 160.933 213.813 161.653 213.813 162.48C213.813 163.32 213.979 164.053 214.313 164.68C214.646 165.293 215.093 165.767 215.653 166.1C216.213 166.42 216.833 166.58 217.513 166.58C218.193 166.58 218.813 166.42 219.373 166.1C219.946 165.767 220.399 165.293 220.733 164.68C221.066 164.053 221.233 163.327 221.233 162.5ZM227.968 158.82C228.288 158.193 228.742 157.707 229.328 157.36C229.928 157.013 230.655 156.84 231.508 156.84V158.72H231.028C228.988 158.72 227.968 159.827 227.968 162.04V168H226.148V157.04H227.968V158.82ZM232.929 162.48C232.929 161.36 233.156 160.38 233.609 159.54C234.063 158.687 234.683 158.027 235.469 157.56C236.269 157.093 237.163 156.86 238.149 156.86C239.003 156.86 239.796 157.06 240.529 157.46C241.263 157.847 241.823 158.36 242.209 159V153.2H244.049V168H242.209V165.94C241.849 166.593 241.316 167.133 240.609 167.56C239.903 167.973 239.076 168.18 238.129 168.18C237.156 168.18 236.269 167.94 235.469 167.46C234.683 166.98 234.063 166.307 233.609 165.44C233.156 164.573 232.929 163.587 232.929 162.48ZM242.209 162.5C242.209 161.673 242.043 160.953 241.709 160.34C241.376 159.727 240.923 159.26 240.349 158.94C239.789 158.607 239.169 158.44 238.489 158.44C237.809 158.44 237.189 158.6 236.629 158.92C236.069 159.24 235.623 159.707 235.289 160.32C234.956 160.933 234.789 161.653 234.789 162.48C234.789 163.32 234.956 164.053 235.289 164.68C235.623 165.293 236.069 165.767 236.629 166.1C237.189 166.42 237.809 166.58 238.489 166.58C239.169 166.58 239.789 166.42 240.349 166.1C240.923 165.767 241.376 165.293 241.709 164.68C242.043 164.053 242.209 163.327 242.209 162.5ZM257.125 162.1C257.125 162.447 257.105 162.813 257.065 163.2H248.305C248.372 164.28 248.738 165.127 249.405 165.74C250.085 166.34 250.905 166.64 251.865 166.64C252.652 166.64 253.305 166.46 253.825 166.1C254.358 165.727 254.732 165.233 254.945 164.62H256.905C256.612 165.673 256.025 166.533 255.145 167.2C254.265 167.853 253.172 168.18 251.865 168.18C250.825 168.18 249.892 167.947 249.065 167.48C248.252 167.013 247.612 166.353 247.145 165.5C246.678 164.633 246.445 163.633 246.445 162.5C246.445 161.367 246.672 160.373 247.125 159.52C247.578 158.667 248.212 158.013 249.025 157.56C249.852 157.093 250.798 156.86 251.865 156.86C252.905 156.86 253.825 157.087 254.625 157.54C255.425 157.993 256.038 158.62 256.465 159.42C256.905 160.207 257.125 161.1 257.125 162.1ZM255.245 161.72C255.245 161.027 255.092 160.433 254.785 159.94C254.478 159.433 254.058 159.053 253.525 158.8C253.005 158.533 252.425 158.4 251.785 158.4C250.865 158.4 250.078 158.693 249.425 159.28C248.785 159.867 248.418 160.68 248.325 161.72H255.245ZM261.887 154.06L261.667 164.06H260.147L259.927 154.06H261.887ZM260.987 168.12C260.641 168.12 260.347 168 260.107 167.76C259.867 167.52 259.747 167.227 259.747 166.88C259.747 166.533 259.867 166.24 260.107 166C260.347 165.76 260.641 165.64 260.987 165.64C261.321 165.64 261.601 165.76 261.827 166C262.067 166.24 262.187 166.533 262.187 166.88C262.187 167.227 262.067 167.52 261.827 167.76C261.601 168 261.321 168.12 260.987 168.12Z" fill="black"/>
<path d="M460 203C460 197.477 464.477 193 470 193H485V321H470C464.477 321 460 316.523 460 311V203Z" fill="#FAFAFA"/>
<rect x="160" y="90" width="25" height="1.90476" rx="0.952381" fill="black"/>
<rect x="160" y="99.0476" width="18.75" height="1.90476" rx="0.952381" fill="black"/>
<rect x="160" y="108.095" width="25" height="1.90476" rx="0.952381" fill="black"/>
</g>
</g>
<circle cx="25" cy="230" r="25" fill="#FF3A75"/>
<circle cx="596.5" cy="382.5" r="43.5" fill="#FBC02D"/>
<circle cx="525" cy="463" r="22" fill="#FF3A75"/>
<circle cx="87" cy="284" r="16" fill="#FBC02D"/>
<circle cx="60.5" cy="357.5" r="10.5" fill="#FBC02D"/>
<circle cx="578.5" cy="515.5" r="10.5" fill="#FBC02D"/>
<defs>
<filter id="filter0_b" x="84.9012" y="15" width="440" height="720" filterUnits="userSpaceOnUse" color-interpolation-filters="sRGB">
<feFlood flood-opacity="0" result="BackgroundImageFix"/>
<feGaussianBlur in="BackgroundImage" stdDeviation="20"/>
<feComposite in2="SourceAlpha" operator="in" result="effect1_backgroundBlur"/>
<feBlend mode="normal" in="SourceGraphic" in2="effect1_backgroundBlur" result="shape"/>
</filter>
<linearGradient id="paint0_linear" x1="165.93" y1="473.154" x2="36.6283" y2="643.057" gradientUnits="userSpaceOnUse">
<stop stop-color="#FBC02D"/>
<stop offset="1" stop-color="#FF3A75"/>
</linearGradient>
<linearGradient id="paint1_linear" x1="312.354" y1="245.632" x2="547.712" y2="70.5141" gradientUnits="userSpaceOnUse">
<stop stop-color="#FBC02D"/>
<stop offset="1" stop-color="#FF3A75"/>
</linearGradient>
<clipPath id="clip0">
<rect x="124.901" y="55" width="360" height="640" rx="20" fill="white"/>
</clipPath>
<clipPath id="clip1">
<rect width="22.8374" height="20" fill="white" transform="translate(149.901 466)"/>
</clipPath>
<clipPath id="clip2">
<rect width="22.8374" height="20" fill="white" transform="translate(173.015 566) rotate(-180)"/>
</clipPath>
</defs>
</svg>
