<svg width="214" height="75" viewBox="0 0 214 75" fill="none" xmlns="http://www.w3.org/2000/svg">
<rect width="74.4186" height="74.4186" rx="24" fill="#FBC02D"/>
<path d="M18.6047 16.2791H34.5205C39.253 16.2791 42.8811 17.3335 45.4051 19.4423C47.9456 21.5345 49.2159 24.5234 49.2159 28.409C49.2159 32.3112 47.9456 35.3166 45.4051 37.4255C42.8811 39.5177 39.253 40.5638 34.5205 40.5638L34.4564 53.4659C34.4564 53.4659 18.6047 54.0895 18.6047 33.0606V16.2791Z" stroke="black" stroke-width="2.5" stroke-miterlimit="8" stroke-linecap="round" stroke-linejoin="round"/>
<path d="M25.2029 21.8591H41.1187C45.8512 21.8591 49.4793 22.9135 52.0033 25.0224C54.5439 27.1146 55.8141 30.1035 55.8141 33.9891C55.8141 37.8912 54.5439 40.8967 52.0033 43.0056C49.4793 45.0978 45.8512 46.1439 41.1187 46.1439L41.0546 59.046C41.0546 59.046 25.2029 59.6696 25.2029 38.6407V21.8591Z" stroke="black" stroke-width="2.5" stroke-miterlimit="8" stroke-linecap="round" stroke-linejoin="round"/>
<path d="M18.6047 16.2791L26.0994 22.7556" stroke="black" stroke-width="2.5"/>
<path d="M34.5203 40.5637L42.015 47.0402" stroke="black" stroke-width="2.5"/>
<path d="M121.984 32.576C121.984 33.7707 121.696 34.8907 121.12 35.936C120.566 36.9813 119.68 37.824 118.464 38.464C117.27 39.104 115.755 39.424 113.92 39.424H110.176V48H105.696V25.664H113.92C115.648 25.664 117.12 25.9627 118.336 26.56C119.552 27.1573 120.459 27.9787 121.056 29.024C121.675 30.0693 121.984 31.2533 121.984 32.576ZM113.728 35.808C114.966 35.808 115.883 35.5307 116.48 34.976C117.078 34.4 117.376 33.6 117.376 32.576C117.376 30.4 116.16 29.312 113.728 29.312H110.176V35.808H113.728ZM133.037 48.288C131.33 48.288 129.794 47.9147 128.429 47.168C127.064 46.4 125.986 45.3227 125.197 43.936C124.429 42.5493 124.045 40.9493 124.045 39.136C124.045 37.3227 124.44 35.7227 125.229 34.336C126.04 32.9493 127.138 31.8827 128.525 31.136C129.912 30.368 131.458 29.984 133.165 29.984C134.872 29.984 136.418 30.368 137.805 31.136C139.192 31.8827 140.28 32.9493 141.069 34.336C141.88 35.7227 142.285 37.3227 142.285 39.136C142.285 40.9493 141.869 42.5493 141.037 43.936C140.226 45.3227 139.117 46.4 137.709 47.168C136.322 47.9147 134.765 48.288 133.037 48.288ZM133.037 44.384C133.848 44.384 134.605 44.192 135.309 43.808C136.034 43.4027 136.61 42.8053 137.037 42.016C137.464 41.2267 137.677 40.2667 137.677 39.136C137.677 37.4507 137.229 36.16 136.333 35.264C135.458 34.3467 134.381 33.888 133.101 33.888C131.821 33.888 130.744 34.3467 129.869 35.264C129.016 36.16 128.589 37.4507 128.589 39.136C128.589 40.8213 129.005 42.1227 129.837 43.04C130.69 43.936 131.757 44.384 133.037 44.384ZM144.419 39.136C144.419 37.3013 144.793 35.7013 145.539 34.336C146.286 32.9493 147.321 31.8827 148.643 31.136C149.966 30.368 151.481 29.984 153.187 29.984C155.385 29.984 157.198 30.5387 158.627 31.648C160.078 32.736 161.049 34.272 161.539 36.256H156.707C156.451 35.488 156.014 34.8907 155.395 34.464C154.798 34.016 154.051 33.792 153.155 33.792C151.875 33.792 150.862 34.2613 150.115 35.2C149.369 36.1173 148.995 37.4293 148.995 39.136C148.995 40.8213 149.369 42.1333 150.115 43.072C150.862 43.9893 151.875 44.448 153.155 44.448C154.969 44.448 156.153 43.6373 156.707 42.016H161.539C161.049 43.936 160.078 45.4613 158.627 46.592C157.177 47.7227 155.363 48.288 153.187 48.288C151.481 48.288 149.966 47.9147 148.643 47.168C147.321 46.4 146.286 45.3333 145.539 43.968C144.793 42.5813 144.419 40.9707 144.419 39.136ZM175.317 48L169.301 40.448V48H164.821V24.32H169.301V37.792L175.253 30.272H181.077L173.269 39.168L181.141 48H175.317ZM199.989 38.752C199.989 39.392 199.946 39.968 199.861 40.48H186.901C187.008 41.76 187.456 42.7627 188.245 43.488C189.034 44.2133 190.005 44.576 191.157 44.576C192.821 44.576 194.005 43.8613 194.709 42.432H199.541C199.029 44.1387 198.048 45.5467 196.597 46.656C195.146 47.744 193.365 48.288 191.253 48.288C189.546 48.288 188.01 47.9147 186.645 47.168C185.301 46.4 184.245 45.3227 183.477 43.936C182.73 42.5493 182.357 40.9493 182.357 39.136C182.357 37.3013 182.73 35.6907 183.477 34.304C184.224 32.9173 185.269 31.8507 186.613 31.104C187.957 30.3573 189.504 29.984 191.253 29.984C192.938 29.984 194.442 30.3467 195.765 31.072C197.109 31.7973 198.144 32.832 198.869 34.176C199.616 35.4987 199.989 37.024 199.989 38.752ZM195.349 37.472C195.328 36.32 194.912 35.4027 194.101 34.72C193.29 34.016 192.298 33.664 191.125 33.664C190.016 33.664 189.077 34.0053 188.309 34.688C187.562 35.3493 187.104 36.2773 186.933 37.472H195.349ZM208.475 33.952V42.528C208.475 43.1253 208.614 43.5627 208.891 43.84C209.19 44.096 209.68 44.224 210.363 44.224H212.443V48H209.627C205.851 48 203.963 46.1653 203.963 42.496V33.952H201.851V30.272H203.963V25.888H208.475V30.272H212.443V33.952H208.475Z" fill="black"/>
</svg>
